<?xml version="1.0" encoding="utf-8"?>
<!-- Generator: Adobe Illustrator 19.0.0, SVG Export Plug-In . SVG Version: 6.00 Build 0)  -->
<svg version="1.1" id="Layer_1" xmlns="http://www.w3.org/2000/svg" xmlns:xlink="http://www.w3.org/1999/xlink" x="0px" y="0px"
	 viewBox="0 0 100 100" style="enable-background:new 0 0 100 100;" xml:space="preserve">
<style type="text/css">
	.st0{fill:#FF336D;}
	.st1{fill:#00FF00;}
</style>
<polygon id="XMLID_236_" class="st0" points="69.3,68.4 45.3,62.8 27.1,79.4 25,54.9 3.6,42.7 26.3,33.1 31.3,9 47.4,27.6 
	71.9,24.9 59.2,46 "/>
<g id="XMLID_1_">
	<g id="XMLID_624_">
		<path id="XMLID_628_" class="st1" d="M21.1,21.7c-4.6,0.6-12.6,0.7-12.5,6.9c0,5,4.1,9.6,8.5,11.2c4.1,1.5,10.9,1.8,11-3.9
			c0.1-4.8-3.9-8.1-8.5-7.4c0.3,1,0.5,1.9,0.8,2.9c1.9-0.3,6-1.9,7.5-0.3c1.3,1.4,1.6,5.9,2,7.7c0.4,1.9,3.3,1.1,2.9-0.8
			c-0.5-2.2-1.1-9.2-3.3-10.5c-2.3-1.4-7.5,0.7-9.9,1.1c-1.9,0.3-1.1,3.2,0.8,2.9c3.1,0.2,4.7,1.7,4.7,4.5c-1.4,1.7-3.1,2.3-5.2,1.6
			c-2.6-0.5-5-2-6.5-4.2c-1.7-2.4-2.9-5.3,0.3-7.2c1.7-1.1,5.5-1.2,7.4-1.4C23,24.4,23,21.4,21.1,21.7L21.1,21.7z"/>
	</g>
</g>
<g id="XMLID_2_">
	<g id="XMLID_618_">
		<path id="XMLID_622_" class="st1" d="M33.8,25.7c0.2,1.2,0.5,2.3,0.9,3.4c0.3,0.8,1,1.3,1.8,1c0.7-0.2,1.3-1.1,1-1.8
			c-0.4-1.1-0.7-2.2-0.9-3.4c-0.1-0.8-1.1-1.2-1.8-1C34,24.1,33.7,24.9,33.8,25.7L33.8,25.7z"/>
	</g>
</g>
<g id="XMLID_3_">
	<g id="XMLID_612_">
		<path id="XMLID_616_" class="st1" d="M38.3,33.7c5.6,3.7,7.3-6.7,7.3-10c0-2-2.8-1.9-3,0c-0.4,3.4-0.4,6.8,0.2,10.1
			c0.3,1.9,1.8,4.9,0.6,6.7c-0.9,1.5-5.7,2.4-7.3,1.9c-1.8-0.6-2.6,2.3-0.8,2.9c3,1,9.8-0.8,11.3-3.9c0.9-1.9-0.1-4.4-0.5-6.3
			c-0.9-3.9-1-7.6-0.5-11.5c-1,0-2,0-3,0c0,0.7-0.6,8.9-2.8,7.4C38.2,30,36.7,32.6,38.3,33.7L38.3,33.7z"/>
	</g>
</g>
<g id="XMLID_4_">
	<g id="XMLID_606_">
		<path id="XMLID_610_" class="st1" d="M49.9,23.1c0.4,3.5,1,6.9,1.9,10.2c0.4,1.6,3.1,1.3,2.9-0.4c-0.1-1.5-1-8.5,0.3-9.3
			c0.7-0.4,4.6,6.2,5.1,7.1c0.5,0.9,2.1,1,2.6,0c0.9-1.9,2.9-6.7,5.1-6.5c2.6,0.2,4.2,4.5,5.2,6.6c0.8,1.7,3.4,0.2,2.6-1.5
			c-1.2-2.6-4.4-9.2-8-9.2c-3.4,0.1-6.4,6.6-7.6,9.1c0.9,0,1.7,0,2.6,0c-1.2-2.2-5.3-10.2-8.7-9.4c-3.7,0.9-2.5,10.7-2.3,13.1
			c1-0.1,2-0.3,2.9-0.4c-0.8-3.1-1.5-6.2-1.8-9.4C52.7,21.2,49.7,21.2,49.9,23.1L49.9,23.1z"/>
	</g>
</g>
<g id="XMLID_11_">
	<g id="XMLID_599_">
		<path id="XMLID_603_" class="st1" d="M34.7,27.7c-0.1,1.6,0.9,3.3,1.9,4.5c1,1.2,2.7,2,4.2,1.4c0.8-0.3,1.3-1,1-1.8
			c-0.2-0.7-1.1-1.3-1.8-1c-1.2,0.5-2.3-2-2.3-3C37.7,25.8,34.7,25.8,34.7,27.7L34.7,27.7z"/>
	</g>
</g>
<g id="XMLID_17_">
	<g id="XMLID_593_">
		<path id="XMLID_597_" class="st1" d="M10.8,49.6c2.3,10.4,5.5,20.4,9.6,30.2c0.7,1.8,3.6,1,2.9-0.8c-4.1-9.8-7.3-19.8-9.6-30.2
			C13.3,46.9,10.4,47.7,10.8,49.6L10.8,49.6z"/>
	</g>
</g>
<g id="XMLID_18_">
	<g id="XMLID_587_">
		<path id="XMLID_591_" class="st1" d="M12.9,50.4c2,0.1,3.9,0.3,5.8,0.8c0.5,0.2,1,0.3,1.5,0.5c2.5,0.1,3.2,1,2.1,2.9
			c-0.5,3.2-4.7,5.6-7,7.6c-1.4,1.2,0.4,3,1.8,2.4c3.1-2.1,5.4-0.9,7.1,3.6c-0.6,0.9-1.3,1.7-2,2.4c-1.2,1.4-2.6,2.6-4,3.8
			c-1.5,1.3,0.7,3.4,2.1,2.1c3.5-3,8.9-7.2,6.6-12.5c-2.1-4.9-7.5-3.6-11.4-2c0.6,0.8,1.2,1.6,1.8,2.4c2.7-2.4,10.4-7,8.8-11.8
			c-1.4-4.3-9.7-4.9-13.4-5.1C11,47.3,11,50.3,12.9,50.4L12.9,50.4z"/>
	</g>
</g>
<g id="XMLID_24_">
	<g id="XMLID_581_">
		<path id="XMLID_585_" class="st1" d="M28.4,58.4c0.3,3.1,1.1,6.1,2.3,9c0.9,2.2,2.1,5,4.1,6.3c0.6,0.4,1.3,0.2,1.8-0.2
			c1.9-1.7,2.7-5.3,3.1-7.7c0.4-3,0.2-5.9-0.6-8.8c-0.5-1.9-3.3-1.1-2.9,0.8c0.9,4.1,2.4,7.9,4.3,11.6c0.9,1.7,3.5,0.2,2.6-1.5
			c-1.8-3.5-3.2-7.1-4-10.9c-1,0.3-1.9,0.5-2.9,0.8c0.7,2.3,0.9,4.6,0.7,7c-0.2,2-0.8,5.3-2.3,6.7c0.6-0.1,1.2-0.2,1.8-0.2
			c-1.5-1-2.7-4.4-3.3-5.9c-0.8-2.2-1.4-4.5-1.6-6.8C31.2,56.5,28.2,56.5,28.4,58.4L28.4,58.4z"/>
	</g>
</g>
<g id="XMLID_25_">
	<g id="XMLID_575_">
		<path id="XMLID_579_" class="st1" d="M51,54.8c-4.5-8.7-14.2,5.2-7,10.9c3.8,3,6.5-1.8,7.8-4.8c2.3-5.3,2.5-11.1,1-16.6
			c-0.5-1.6-3-1.3-2.9,0.4c0.2,8,3.4,15.9,6.3,23.2c0.7,1.8,3.6,1,2.9-0.8c-2.9-7-6.1-14.8-6.2-22.4c-1,0.1-2,0.3-2.9,0.4
			c1.2,4.2,1.3,8.4-0.1,12.6c-0.6,1.8-1.7,6.2-4.8,4.4c-3.1-1.7,1.8-9,3.4-5.9C49.3,58.1,51.9,56.5,51,54.8L51,54.8z"/>
	</g>
</g>
<g id="XMLID_26_">
	<g id="XMLID_569_">
		<path id="XMLID_573_" class="st1" d="M66.8,51c-2.4-2.2-8-5.7-10.7-2.2c-2.7,3.6-0.9,9.2,2.4,11.6c3.5,2.5,6.1,0.2,7.3-3.4
			c2-6.4,0.8-13.3-1.1-19.6c-0.5-1.6-3-1.3-2.9,0.4c0.4,7.5,3.1,14.3,8.1,20c1.3,1.5,3.4-0.7,2.1-2.1c-4.4-5.1-6.9-11.1-7.3-17.8
			c-1,0.1-2,0.3-2.9,0.4c1.5,5.1,2.7,10.5,1.7,15.8c-0.2,0.8-0.3,2.3-0.8,2.9c-1.8,2.5-3.9-0.1-4.6-2.1c0-1.1,0-2.2,0-3.3
			c0.2-1.2,0.8-1.5,1.8-1c1.7,0,3.6,1.5,4.7,2.5C66.1,54.4,68.2,52.3,66.8,51L66.8,51z"/>
	</g>
</g>
<g id="XMLID_31_">
	<g id="XMLID_563_">
		<path id="XMLID_567_" class="st1" d="M72.4,44.8c2.2,3.8,4.9,7.4,7.8,10.7c1.3,1.4,3.4-0.7,2.1-2.1c-2.8-3.1-5.2-6.5-7.4-10.1
			C74,41.7,71.5,43.2,72.4,44.8L72.4,44.8z"/>
	</g>
</g>
<g id="XMLID_33_">
	<g id="XMLID_557_">
		<path id="XMLID_561_" class="st1" d="M83.7,39.3c-4.2,11.3-4.5,23.5-7.6,35.1c-0.5,1.9,2.4,2.7,2.9,0.8c3-11.6,3.4-23.8,7.6-35.1
			C87.2,38.3,84.3,37.5,83.7,39.3L83.7,39.3z"/>
	</g>
</g>
<g id="XMLID_52_">
	<g id="XMLID_551_">
		<path id="XMLID_555_" class="st1" d="M50.8,25.4c1.9,0,1.9-3,0-3C48.9,22.4,48.9,25.4,50.8,25.4L50.8,25.4z"/>
	</g>
</g>
<g id="XMLID_23_">
	<g id="XMLID_545_">
		<path id="XMLID_549_" class="st1" d="M59.7,27.5c0.7,0,0.7-1,0-1C59.1,26.5,59.1,27.5,59.7,27.5L59.7,27.5z"/>
	</g>
</g>
<g id="XMLID_185_">
	<g id="XMLID_538_">
		<path id="XMLID_542_" class="st1" d="M50.7,78.8c-0.3,3.2-0.5,6.5-0.8,9.7c-0.1,0.7,1,0.7,1,0c0.3-3.2,0.5-6.5,0.8-9.7
			C51.7,78.1,50.7,78.1,50.7,78.8L50.7,78.8z"/>
	</g>
</g>
<g id="XMLID_32_">
	<g id="XMLID_531_">
		<path id="XMLID_535_" class="st1" d="M52,78.6c6.2,0.1,12.3,0.2,18.5,0.3c3,0.1,6.3-0.2,9.2,0.2c0.7,0.1,1-0.1,1.5,0.5
			c0.3,0.4-0.2,2-0.2,2.5c-0.1,1.5-0.2,3-0.4,4.5c-0.1,1.2,0,2.6-0.3,3.7c-0.4,2-1.8,2.8-3.7,2.6c-2.5-0.2-4.9-0.4-7.4-0.5
			c-6.1-0.2-12.2-0.4-18.4-0.6c-0.7,0-0.7,1,0,1c8.7,0.3,17.5,0.5,26.2,1.1c2,0.1,3.9-0.1,4.3-2.4c0.7-4.2,0.7-8.8,1-13
			c0-0.3-0.3-0.5-0.5-0.5c-9.9-0.2-19.8-0.3-29.8-0.5C51.3,77.5,51.3,78.6,52,78.6L52,78.6z"/>
	</g>
</g>
<g id="XMLID_28_">
	<g id="XMLID_525_">
		<path id="XMLID_529_" class="st1" d="M64.6,80.3c0.3,3.6-0.1,7-0.4,10.6c0,0.4,0.6,0.5,0.7,0.1c0.9-3.5,0.8-7.2,0.5-10.7
			C65.4,79.8,64.5,79.8,64.6,80.3L64.6,80.3z"/>
	</g>
</g>
<g id="XMLID_76_">
	<g id="XMLID_518_">
		<path id="XMLID_523_" class="st1" d="M67.3,80.9C67.1,81.4,67,82,67,82.6c0,0.2,0.2,0.4,0.4,0.4c0.6,0.1,1.4,0.3,2,0.2
			c0.4,0,0.5-0.6,0.1-0.7c-0.7-0.2-1.4-0.2-2.1-0.3c0.1,0.1,0.3,0.3,0.4,0.4c0-0.5,0.1-1,0.3-1.5C68.2,80.6,67.5,80.4,67.3,80.9
			L67.3,80.9z"/>
	</g>
</g>
<g id="XMLID_82_">
	<g id="XMLID_512_">
		<path id="XMLID_516_" class="st1" d="M70.8,80.9c-0.8,0.4-0.7,1.6-0.1,2.1c0.9,0.7,2.4,0.2,3.2-0.4c0.8-0.6,0.9-1.7,0.2-2.5
			c-0.8-0.7-2-0.5-2.5,0.4c-0.3,0.5,0.4,0.9,0.8,0.4c0.7-0.9,1.9,0.3,0.7,1c-0.4,0.2-0.9,0.4-1.4,0.4c-0.2,0-0.5-0.1-0.6-0.3
			c-0.1-0.2-0.1-0.4,0.1-0.5C71.7,81.4,71.3,80.7,70.8,80.9L70.8,80.9z"/>
	</g>
</g>
<g id="XMLID_83_">
	<g id="XMLID_505_">
		<path id="XMLID_510_" class="st1" d="M76.1,80.1c-0.8,0.5-1.4,1.2-1.4,2.2c0,0.8,0.5,1.5,1.2,1.8c0.6,0.3,1.5,0.1,1.7-0.7
			c0.2-1-0.7-1.5-1.4-1.7c0,0.3,0,0.6,0,0.9c0.4-0.1,0.9-0.3,1.4-0.3c0.4,0,0.9,0.3,0.8,0.8c-0.1,0.5,0.6,0.7,0.8,0.2
			c0.3-0.7,0-1.3-0.6-1.7c-0.8-0.5-1.8-0.3-2.6,0c-0.4,0.2-0.5,0.8,0,0.9c0.1,0,1,0.4,0.6,0.6c-0.3,0.2-0.8-0.4-0.8-0.6
			c-0.3-0.7,0.3-1.4,0.9-1.7C77,80.6,76.6,79.8,76.1,80.1L76.1,80.1z"/>
	</g>
</g>
<g id="XMLID_101_">
	<g id="XMLID_499_">
		<path id="XMLID_503_" class="st1" d="M67.8,85.4c0.5,0.1,1,0.1,1.5,0c0.4-0.1,0.9-0.2,1.3-0.3c0.7-0.1,1.2,0.2,1.9,0.3
			c0.7,0.1,1.3,0.1,2.1,0.3c0.8,0.3,2,0.3,2.8,0.7c0.5,0.3,0.9-0.4,0.4-0.7c-0.7-0.5-1.1-0.5-1.9-0.6c-0.8-0.1-1.2-0.5-2.1-0.5
			c-0.9,0-1.6-0.3-2.5-0.3c-1.2-0.1-2.2,0.6-3.4,0.4C67.5,84.5,67.3,85.3,67.8,85.4L67.8,85.4z"/>
	</g>
</g>
<g id="XMLID_102_">
	<g id="XMLID_493_">
		<path id="XMLID_497_" class="st1" d="M68.6,86.8c0.9,0.2,1.8,0.4,2.8,0.3c0.3,0,0.7-0.1,1-0.1c2.4,0.2,0.4,0.2,1.4,0.7
			c1.1,0.5,2.9-0.1,3.8,0.6c0.4,0.3,1-0.2,0.6-0.6c-1.2-1.2-2.7-0.2-4.1-0.9c-0.6-0.3-0.6-0.6-1.4-0.7c-1.4,0-2.5,0.3-3.9,0
			C68.4,86,68.2,86.7,68.6,86.8L68.6,86.8z"/>
	</g>
</g>
<g id="XMLID_103_">
	<g id="XMLID_485_">
		<path id="XMLID_491_" class="st1" d="M68.9,89.3c0.8-0.4,1.6,0.5,2.3,0.7c0.5,0.1,0.8,0,1.3,0c1.5-0.2,3,0.7,4.5,0.7
			c0.5,0,0.6-0.7,0.1-0.8c-1.6-0.2-2.9-0.9-4.5-0.8c-0.7,0-1.4,0.1-2.1-0.2c-0.2-0.1-0.4-0.3-0.7-0.3c-0.5-0.1-0.9-0.1-1.4,0.2
			C68.1,88.9,68.5,89.6,68.9,89.3L68.9,89.3z"/>
	</g>
</g>
<g id="XMLID_111_">
	<g id="XMLID_477_">
		<path id="XMLID_483_" class="st1" d="M53.2,80.6c0.4-0.5,2,0.3,2.7,0.4c0.7,0.1,1.3-0.4,2.1-0.3c0.5,0.1,1,0.5,1.5,0.6
			c1.1,0.2,2-0.1,3.2,0.5c0.4,0.2,0.8-0.4,0.4-0.7c-0.9-0.6-1.8-0.5-2.9-0.6c-1.1-0.1-1.9-0.6-3-0.7c-0.1,0-0.1,0-0.1,0
			c-0.9,0.4-1.7,0.3-2.4-0.2c-0.2,0-0.4-0.2-0.6-0.2c-0.7-0.1-1,0.1-1.4,0.7C52.4,80.5,53,80.9,53.2,80.6L53.2,80.6z"/>
	</g>
</g>
<g id="XMLID_113_">
	<g id="XMLID_471_">
		<path id="XMLID_475_" class="st1" d="M53.4,82.8c0.8-0.5,1.5,0.2,2.3,0.3c0.5,0.1,0.8-0.1,1.3-0.2c1.8-0.3,3.5,0.1,5.3,0.1
			c0.5,0,0.5-0.7,0-0.8c-1.7-0.2-3.5-0.3-5.2-0.1c-0.6,0.1-1.2,0.2-1.8,0.1c-0.4-0.1-0.7-0.3-1.1-0.3c-0.5,0-0.7,0.1-1.1,0.3
			C52.7,82.5,53,83.1,53.4,82.8L53.4,82.8z"/>
	</g>
</g>
<g id="XMLID_130_">
	<g id="XMLID_464_">
		<path id="XMLID_469_" class="st1" d="M53.3,84.5c0.8-0.7,1.8-0.2,2.7-0.2c1-0.1,1.7-0.3,2.7,0.1c0.5,0.2,0.9,0.6,1.5,0.7
			c0.9,0.1,1.7-0.7,2.7-0.2c0.4,0.2,0.7-0.3,0.4-0.6c-0.8-0.6-1.1-0.3-2-0.2c-1.6,0.3-2.2-0.9-3.6-0.9c-0.3,0-0.3,0.1-0.8,0.2
			c-1.2,0.2-1.1,0.1-2.2,0.1c-0.7,0-1.3,0.1-1.8,0.6C52.5,84.3,53,84.8,53.3,84.5L53.3,84.5z"/>
	</g>
</g>
<g id="XMLID_137_">
	<g id="XMLID_457_">
		<path id="XMLID_462_" class="st1" d="M54,86.6c1.3-0.3,2.6,0.3,4,0c1.9-0.4,3.5-0.2,5.4,0.1c0.5,0.1,0.7-0.6,0.2-0.7
			c-1.5-0.4-3.1-0.7-4.7-0.5c-1.2,0.2-1.9,0.5-3.2,0.4c-0.7-0.1-1.2-0.2-2,0C53.3,86,53.5,86.7,54,86.6L54,86.6z"/>
	</g>
</g>
<g id="XMLID_144_">
	<g id="XMLID_451_">
		<path id="XMLID_455_" class="st1" d="M53.9,88.9c0.9-0.9,1.8,0.4,2.6,0.6c1,0.2,1.8-0.5,2.7-0.4c0.5,0.1,0.8,0.4,1.3,0.5
			c0.8,0.2,1.8-0.6,2.5,0c0.4,0.3,0.9-0.2,0.5-0.5c-0.5-0.6-0.9-0.5-1.6-0.5c-0.3,0-0.7,0.2-1.1,0.2c-0.4-0.1-0.6-0.4-0.9-0.5
			c-0.3-0.1-0.4-0.2-0.8-0.1c-0.9,0.1-1.4,0.6-2.4,0.4c-0.7-0.1-0.8-0.5-1.5-0.7c-0.7-0.2-1.4,0-1.9,0.5
			C52.9,88.7,53.5,89.2,53.9,88.9L53.9,88.9z"/>
	</g>
</g>
<g id="XMLID_108_">
	<g id="XMLID_445_">
		<path id="XMLID_449_" class="st1" d="M49.8,87.9c0,1.3,0,2.6,0,3.9c0,0.4,0.6,0.4,0.6,0c0-1.3,0-2.6,0-3.9
			C50.5,87.5,49.8,87.5,49.8,87.9L49.8,87.9z"/>
	</g>
</g>
<g id="XMLID_110_">
	<g id="XMLID_439_">
		<path id="XMLID_443_" class="st1" d="M50.1,88.2c0,1.2-0.1,2.4,0,3.5c0,0.4,0.6,0.4,0.6,0c0.1-1.2,0.1-2.4,0.1-3.5
			C50.7,87.8,50.1,87.8,50.1,88.2L50.1,88.2z"/>
	</g>
</g>
<g id="XMLID_118_">
	<g id="XMLID_433_">
		<path id="XMLID_437_" class="st1" d="M52.3,78.3c3.6-1.3,7.1-0.8,10.5,0.9c0.4,0.2,0.8-0.4,0.4-0.7c-3.3-2.1-7.5-2.2-11.1-0.9
			C51.6,77.7,51.8,78.4,52.3,78.3L52.3,78.3z"/>
	</g>
</g>
<g id="XMLID_119_">
	<g id="XMLID_427_">
		<path id="XMLID_431_" class="st1" d="M57.6,77.4c2.6-0.1,4.8,0.6,7.1,1.8c0.4,0.2,0.8-0.4,0.4-0.6c-2.2-1.4-4.8-2-7.4-1.9
			C57.1,76.8,57.1,77.4,57.6,77.4L57.6,77.4z"/>
	</g>
</g>
<g id="XMLID_120_">
	<g id="XMLID_421_">
		<path id="XMLID_425_" class="st1" d="M64.5,78.3c3.7-2,7.5-1.7,11.3-0.1c0.4,0.2,0.8-0.4,0.4-0.6c-3.7-2.2-8.3-1.9-12,0.1
			C63.7,77.9,64.1,78.5,64.5,78.3L64.5,78.3z"/>
	</g>
</g>
<g id="XMLID_125_">
	<g id="XMLID_415_">
		<path id="XMLID_419_" class="st1" d="M68.3,77.4c4-0.8,7.6,0.5,11.4,1.7c0.5,0.1,0.6-0.6,0.2-0.7c-3.7-1.5-7.8-2.5-11.8-1.6
			C67.6,76.8,67.8,77.5,68.3,77.4L68.3,77.4z"/>
	</g>
</g>
<g id="XMLID_127_">
	<g id="XMLID_408_">
		<path id="XMLID_413_" class="st1" d="M68.3,77.8c3.2-0.8,6.2-0.4,9.2,0.8c0.4,0.1,0.6-0.5,0.3-0.6c-3-1.4-6.4-1.6-9.7-0.8
			C67.6,77.2,67.8,77.9,68.3,77.8L68.3,77.8z"/>
	</g>
</g>
<g id="XMLID_207_">
	<g id="XMLID_401_">
		<path id="XMLID_406_" class="st1" d="M72.2,78.1c1.9-0.2,3.7,0.1,5.5,0.6c0.4,0.1,0.5-0.5,0.2-0.6c-1.8-0.7-3.7-0.9-5.6-0.7
			C71.8,77.5,71.8,78.1,72.2,78.1L72.2,78.1z"/>
	</g>
</g>
<g id="XMLID_214_">
	<g id="XMLID_394_">
		<path id="XMLID_399_" class="st1" d="M76.6,77.7c0.6,0.1,1.2,0.1,1.9,0.1c0.3,0,0.3-0.5,0-0.5c-0.6-0.1-1.2-0.1-1.9-0.2
			C76.3,77.1,76.3,77.7,76.6,77.7L76.6,77.7z"/>
	</g>
</g>
<g id="XMLID_221_">
	<g id="XMLID_387_">
		<path id="XMLID_392_" class="st1" d="M68.2,78.3c3.2-0.1,6.4,0.1,9.5,0.5c0.4,0.1,0.6-0.5,0.2-0.6c-3.2-0.6-6.4-0.7-9.7-0.6
			C67.8,77.7,67.8,78.4,68.2,78.3L68.2,78.3z"/>
	</g>
</g>
<g id="XMLID_228_">
	<g id="XMLID_380_">
		<path id="XMLID_385_" class="st1" d="M80.3,79.5c0.7,1.3,0.9,2.7,0.7,4.1c-0.1,0.4,0.6,0.6,0.7,0.2c0.3-1.6,0.1-3.2-0.7-4.7
			C80.8,78.7,80.1,79,80.3,79.5L80.3,79.5z"/>
	</g>
</g>
<g id="XMLID_235_">
	<g id="XMLID_373_">
		<path id="XMLID_378_" class="st1" d="M81.4,80.6c0.5,2.1,0.6,4.1,0.3,6.2c-0.1,0.4,0.5,0.6,0.6,0.2c0.5-2.2,0.4-4.4-0.2-6.6
			C82,79.9,81.3,80.1,81.4,80.6L81.4,80.6z"/>
	</g>
</g>
<g id="XMLID_242_">
	<g id="XMLID_366_">
		<path id="XMLID_371_" class="st1" d="M81.4,80c0.7,1.3,1,2.7,1,4.2c0,0.4,0.6,0.4,0.6,0c0.1-1.6-0.3-3.1-1-4.6
			C81.8,79.2,81.2,79.6,81.4,80L81.4,80z"/>
	</g>
</g>
<g id="XMLID_249_">
	<g id="XMLID_359_">
		<path id="XMLID_364_" class="st1" d="M82.1,79.1c1.9,2.9,2.2,6.1,1.3,9.4c-0.1,0.4,0.5,0.5,0.6,0.2c1.2-3.3,0.7-7-1.3-9.9
			C82.5,78.3,81.9,78.7,82.1,79.1L82.1,79.1z"/>
	</g>
</g>
<g id="XMLID_256_">
	<g id="XMLID_352_">
		<path id="XMLID_357_" class="st1" d="M82.6,81.7c0.3,3,0.1,5.9-0.7,8.8c-0.1,0.4,0.6,0.6,0.7,0.2c0.8-3,1-6,0.7-9
			C83.2,81.2,82.5,81.2,82.6,81.7L82.6,81.7z"/>
	</g>
</g>
<g id="XMLID_263_">
	<g id="XMLID_345_">
		<path id="XMLID_350_" class="st1" d="M82.7,89.3c-0.4,1.1-0.7,2.2-0.8,3.3c0,0.3,0.5,0.4,0.6,0.1c0.2-1.1,0.5-2.1,0.9-3.2
			C83.5,89.1,82.9,88.9,82.7,89.3L82.7,89.3z"/>
	</g>
</g>
<g id="XMLID_270_">
	<g id="XMLID_338_">
		<path id="XMLID_343_" class="st1" d="M81.9,86.3c-0.2,1.3-0.2,2.6-0.1,4c0,0.4,0.6,0.4,0.6,0c0-1.3,0-2.5,0.2-3.8
			C82.6,86,81.9,85.9,81.9,86.3L81.9,86.3z"/>
	</g>
</g>
<g id="XMLID_277_">
	<g id="XMLID_331_">
		<path id="XMLID_336_" class="st1" d="M83.2,83.7c0,2.5-0.1,5.1-0.5,7.6c0,0.3,0.5,0.4,0.6,0.1c0.4-2.5,0.6-5.1,0.5-7.7
			C83.9,83.2,83.2,83.2,83.2,83.7L83.2,83.7z"/>
	</g>
</g>
<g id="XMLID_284_">
	<g id="XMLID_324_">
		<path id="XMLID_329_" class="st1" d="M83.4,88.7c-0.3,1.4-0.5,2.7-0.6,4.1c0,0.4,0.5,0.3,0.6,0c0.2-1.3,0.4-2.7,0.7-4
			C84.1,88.4,83.5,88.2,83.4,88.7L83.4,88.7z"/>
	</g>
</g>
<g id="XMLID_291_">
	<g id="XMLID_317_">
		<path id="XMLID_322_" class="st1" d="M78.9,94c1.2-0.3,2.5-0.7,3.7-1c0.4-0.1,0.2-0.8-0.2-0.7c-1.2,0.3-2.5,0.7-3.7,1
			C78.3,93.4,78.5,94.1,78.9,94L78.9,94z"/>
	</g>
</g>
<g id="XMLID_298_">
	<g id="XMLID_310_">
		<path id="XMLID_315_" class="st1" d="M80.2,93.5c0.7,0,0.7-1,0-1C79.5,92.4,79.5,93.5,80.2,93.5L80.2,93.5z"/>
	</g>
</g>
<g id="XMLID_305_">
	<g id="XMLID_303_">
		<path id="XMLID_308_" class="st1" d="M81.2,92.8c0.7,0,0.7-1,0-1C80.5,91.8,80.5,92.8,81.2,92.8L81.2,92.8z"/>
	</g>
</g>
<g id="XMLID_312_">
	<g id="XMLID_296_">
		<path id="XMLID_301_" class="st1" d="M81.8,91.9c0-0.1-0.5,0.2-0.6,0.3c-0.1,0.1-0.2,0.2-0.3,0.3c-0.2,0.2-0.5,0.4-0.7,0.6
			c-0.3,0.2,0.1,0.6,0.4,0.4c0.4-0.3,0.8-0.6,1.2-1c0.2-0.2,0.5-0.4,0.4-0.7c-0.1-0.3-0.7-0.3-0.7,0.1
			C81.4,92.2,81.8,92.2,81.8,91.9L81.8,91.9z"/>
	</g>
</g>
<g id="XMLID_319_">
	<g id="XMLID_289_">
		<path id="XMLID_294_" class="st1" d="M64.5,93.4c1,2.3,3.6,2.3,5.9,2.5c4.2,0.3,8.4,0.4,12.5-0.1c0.4,0,0.4-0.6,0-0.6
			c-2.8,0.2-5.7,0.3-8.5,0.3c-2.7-0.1-8.1,0.4-9.4-2.4C64.8,92.8,64.3,93.1,64.5,93.4L64.5,93.4z"/>
	</g>
</g>
<g id="XMLID_326_">
	<g id="XMLID_282_">
		<path id="XMLID_287_" class="st1" d="M67.9,93.9c3.5,0.5,7,0.8,10.5,0.8c0.4,0,0.4-0.5,0-0.6c-3.5-0.2-6.9-0.4-10.4-0.9
			C67.7,93.3,67.6,93.9,67.9,93.9L67.9,93.9z"/>
	</g>
</g>
<g id="XMLID_333_">
	<g id="XMLID_275_">
		<path id="XMLID_280_" class="st1" d="M81,92.4c-0.5,0.9-0.9,1.8-1.2,2.8c-0.1,0.4,0.5,0.6,0.6,0.2c0.3-0.9,0.7-1.8,1.2-2.6
			C81.9,92.4,81.3,92,81,92.4L81,92.4z"/>
	</g>
</g>
<g id="XMLID_340_">
	<g id="XMLID_268_">
		<path id="XMLID_273_" class="st1" d="M81.2,92.8c-0.2,0.3-0.4,0.6-0.7,0.8c-0.2,0.2,0.1,0.5,0.3,0.3c0.2-0.3,0.4-0.6,0.7-0.8
			C81.6,92.9,81.4,92.6,81.2,92.8L81.2,92.8z"/>
	</g>
</g>
<g id="XMLID_347_">
	<g id="XMLID_261_">
		<path id="XMLID_266_" class="st1" d="M51.3,92.7c0.6,1.6,2,1.8,3.6,2c3.3,0.4,6.6,0.8,9.9,1.2c0.4,0,0.4-0.6,0-0.6
			c-1.9-0.3-3.8-0.5-5.7-0.7c-1.8-0.2-6.5-0.1-7.3-2.1C51.7,92.2,51.1,92.3,51.3,92.7L51.3,92.7z"/>
	</g>
</g>
<g id="XMLID_354_">
	<g id="XMLID_254_">
		<path id="XMLID_259_" class="st1" d="M58.2,95.5c2.2,0.2,4.4,0.5,6.6,0.7c0.4,0,0.4-0.5,0-0.6c-2.2-0.2-4.4-0.5-6.6-0.7
			C57.8,94.8,57.8,95.4,58.2,95.5L58.2,95.5z"/>
	</g>
</g>
<g id="XMLID_361_">
	<g id="XMLID_247_">
		<path id="XMLID_252_" class="st1" d="M54.9,91.9c0.7,0,0.7-1,0-1C54.2,90.9,54.2,91.9,54.9,91.9L54.9,91.9z"/>
	</g>
</g>
<g id="XMLID_368_">
	<g id="XMLID_239_">
		<path id="XMLID_244_" class="st1" d="M57.6,93c1.8,0.2,3.6,0.5,5.3,0.9c0.4,0.1,0.5-0.5,0.2-0.6c-1.8-0.5-3.6-0.8-5.5-1
			C57.1,92.2,57.1,92.9,57.6,93L57.6,93z"/>
	</g>
</g>
<g id="XMLID_375_">
	<g id="XMLID_231_">
		<path id="XMLID_237_" class="st1" d="M56.6,93.6c2.3,0,4.6,0.3,6.8,0.8c0.3,0.1,0.5-0.5,0.1-0.5c-2.3-0.5-4.6-0.8-7-0.9
			C56.2,93,56.2,93.6,56.6,93.6L56.6,93.6z"/>
	</g>
</g>
<g id="XMLID_382_">
	<g id="XMLID_223_">
		<path id="XMLID_227_" class="st1" d="M57.9,94.4c1.7,0.2,3.5,0.3,5.2,0.5c0.4,0,0.4-0.5,0-0.6c-1.7-0.2-3.5-0.4-5.2-0.5
			C57.5,93.8,57.5,94.4,57.9,94.4L57.9,94.4z"/>
	</g>
</g>
<g id="XMLID_389_">
	<g id="XMLID_216_">
		<path id="XMLID_220_" class="st1" d="M59.7,94.3c3.2,0.7,6.4,1.1,9.7,0.9c0.4,0,0.4-0.6,0-0.6c-3.2,0.1-6.4-0.2-9.5-1
			C59.4,93.6,59.3,94.2,59.7,94.3L59.7,94.3z"/>
	</g>
</g>
<g id="XMLID_396_">
	<g id="XMLID_205_">
		<path id="XMLID_212_" class="st1" d="M74,94.8c0.8,0.1,1.5,0.3,2.2,0.6c0.3,0.1,0.5-0.4,0.2-0.6c-0.7-0.3-1.5-0.6-2.3-0.7
			C73.8,94.1,73.6,94.7,74,94.8L74,94.8z"/>
	</g>
</g>
<g id="XMLID_403_">
	<g id="XMLID_199_">
		<path id="XMLID_203_" class="st1" d="M54.4,93.4c-1,0.1-2,0.2-3,0.5c-0.4,0.1-0.2,0.7,0.2,0.6c0.9-0.2,1.9-0.3,2.8-0.4
			C54.9,94.2,54.9,93.4,54.4,93.4L54.4,93.4z"/>
	</g>
</g>
<g id="XMLID_410_">
	<g id="XMLID_193_">
		<path id="XMLID_197_" class="st1" d="M56.1,93.8c0.7,0,0.7-1,0-1C55.4,92.8,55.4,93.8,56.1,93.8L56.1,93.8z"/>
	</g>
</g>
<g id="XMLID_46_">
	<g id="XMLID_187_">
		<path id="XMLID_191_" class="st1" d="M14.3,2.9c-1.7,0.5-2.5,2.3-1.4,3.7c1.3,1.7,3.8,1.4,5.5,0.5C19.8,6.4,21,4.5,19.7,3
			c-1.4-1.7-4.5-0.8-6.1,0.1c-0.5,0.3-0.1,1.1,0.5,0.8c1-0.5,2.2-0.8,3.3-0.8c0.7,0,1.5,0.1,1.8,0.9c0.2,0.7-0.4,1.5-1,1.9
			c-0.9,0.6-2.3,1-3.4,0.8c-1.5-0.4-2.1-2.5-0.3-3.1C15.1,3.6,14.9,2.7,14.3,2.9L14.3,2.9z"/>
	</g>
</g>
<g id="XMLID_70_">
	<g id="XMLID_180_">
		<path id="XMLID_184_" class="st1" d="M15.6,8.1c0.1,2.9,0.7,6.2,0.4,9.1c-0.2,2.3-3.2,4.3-4.5,6.2c-0.3,0.4,0.4,0.9,0.7,0.5
			c1-1.2,2-2.4,3.2-3.5c0.6-0.6,1.4-1.1,1.7-1.8c0.4-1-0.2-3.6-0.3-4.8c-0.1-1.9-0.2-3.8-0.3-5.7C16.4,7.6,15.6,7.6,15.6,8.1
			L15.6,8.1z"/>
	</g>
</g>
<g id="XMLID_90_">
	<g id="XMLID_174_">
		<path id="XMLID_178_" class="st1" d="M17,19.9c1.2,0.9,2.3,1.7,3.6,2.5c0.4,0.3,0.9-0.4,0.5-0.7c-1.1-1-2.4-1.8-3.6-2.7
			C17,18.6,16.5,19.5,17,19.9L17,19.9z"/>
	</g>
</g>
<g id="XMLID_488_">
	<g id="XMLID_168_">
		<path id="XMLID_172_" class="st1" d="M9.8,10.1c4.1,2,8.3,3.4,12.4,0.6c0.5-0.4,0-1.3-0.5-0.9c-3.8,2.7-7.6,1.3-11.3-0.6
			C9.7,8.9,9.2,9.8,9.8,10.1L9.8,10.1z"/>
	</g>
</g>
<g id="XMLID_209_">
	<g id="XMLID_162_">
		<path id="XMLID_166_" class="st1" d="M8.2,6.7c0.7-1.3,1.4-2.7,2.1-4c0.3-0.6-0.6-1.1-0.9-0.5C8.7,3.6,8,4.9,7.4,6.2
			C7.1,6.8,7.9,7.3,8.2,6.7L8.2,6.7z"/>
	</g>
</g>
<g id="XMLID_490_">
	<g id="XMLID_156_">
		<path id="XMLID_160_" class="st1" d="M8.8,7.1c0.6-1.7,1.3-3.3,1.9-5c0.2-0.6-0.8-0.9-1-0.3C9,3.4,8.4,4.9,7.7,6.4
			C7.5,7,8.3,7.6,8.6,7c0.7-1.6,1.4-3.2,2-4.9C10.3,2,10,1.9,9.6,1.8C9,3.5,8.4,5.1,7.8,6.8C7.5,7.4,8.5,7.7,8.8,7.1L8.8,7.1z"/>
	</g>
</g>
<g id="XMLID_482_">
	<g id="XMLID_150_">
		<path id="XMLID_154_" class="st1" d="M8.7,6.7c0.6-1.2,1.1-2.3,1.7-3.5c-0.3-0.2-0.6-0.3-0.9-0.5C8.9,3.9,8.4,5.2,7.9,6.4
			C7.6,7,8.6,7.3,8.9,6.7c0.5-1.1,1-2.3,1.5-3.4c0.3-0.6-0.6-1.1-0.9-0.5C8.9,3.9,8.3,5,7.8,6.2C7.5,6.8,8.4,7.3,8.7,6.7L8.7,6.7z"
			/>
	</g>
</g>
<g id="XMLID_467_">
	<g id="XMLID_143_">
		<path id="XMLID_148_" class="st1" d="M8.8,6.7c0.6-1.5,1.2-3,1.8-4.5c0.2-0.6-0.6-0.8-0.9-0.4c-1,1.4-1.7,3-2.4,4.6
			C7,7,8,7.3,8.3,6.7c0.6-1.5,1.3-3,2.2-4.3c-0.3-0.1-0.6-0.3-0.9-0.4C9,3.5,8.4,5,7.8,6.5C7.5,7.1,8.5,7.4,8.8,6.7L8.8,6.7z"/>
	</g>
</g>
<g id="XMLID_91_">
	<g id="XMLID_136_">
		<path id="XMLID_141_" class="st1" d="M8.4,2.7C8,3.8,7.7,4.8,7.3,5.9c-0.2,0.6,0.8,0.9,1,0.3C8.7,5.1,9,4.1,9.4,3
			C9.6,2.4,8.6,2.1,8.4,2.7L8.4,2.7z"/>
	</g>
</g>
<g id="XMLID_92_">
	<g id="XMLID_129_">
		<path id="XMLID_134_" class="st1" d="M4.2,11c-1.5,1-0.4,3.4,1.3,2.7c0.7-0.3,1.2-1.1,1-1.8c-0.3-0.8-1.2-1.3-2-1
			C4,11,4.2,11.7,4.7,11.6c0.9-0.2,1.5,1,0.5,1.3c-0.8,0.3-1.3-0.9-0.6-1.3C5,11.3,4.6,10.7,4.2,11L4.2,11z"/>
	</g>
</g>
<g id="XMLID_93_">
	<g id="XMLID_117_">
		<path id="XMLID_124_" class="st1" d="M3.9,11c0.2-0.5,0.6-1.7,1.3-1.7c0.7,0,1,0.6,1.2,1.1c0.3,0.8,0.8,2.3,0.4,3.1
			c-0.6,1-1.9,0-2.4-0.5c-0.8-0.8-0.9-1.8-0.6-2.8C3.9,9.6,3.3,9.4,3,9.8c-0.8,1.5-0.2,3.2,1.1,4.2c1.1,0.8,3,1.5,3.5-0.3
			c0.3-1,0.1-2-0.2-3C7.2,10,7,9.1,6.4,8.7c-1.6-1.1-2.8,0.8-3.2,2.1C3,11.2,3.8,11.4,3.9,11L3.9,11z"/>
	</g>
</g>
<g id="XMLID_211_">
	<g id="XMLID_107_">
		<path id="XMLID_115_" class="st1" d="M3.6,9.9c0.2-0.7,0.5-1.7,1.1-2.2c2.1-1.7,2.6,0.9,2.8,1.8c0.4,1.5,0.7,3,0.5,4.6
			c0,0.3-0.1,0.6-0.2,0.9c-0.7,0.4-1.4,0.7-2.2,1.1c-0.8,0-1.9-1.3-2.3-1.9c-1-1.6-0.7-3.4,0.3-4.9c0.3-0.5-0.4-0.9-0.8-0.4
			c-1.7,2.2-1.4,5.4,0.8,7.2c1.8,1.5,4.3,1.6,5.1-0.9c0.4-1.3,0.2-2.8,0-4.2C8.5,9.8,8.3,7.8,7.3,6.8C5.1,4.9,3.3,8,2.8,9.7
			C2.7,10.2,3.4,10.4,3.6,9.9L3.6,9.9z"/>
	</g>
</g>
<g id="XMLID_245_">
	<g id="XMLID_98_">
		<path id="XMLID_105_" class="st1" d="M7.3,6.2C7.2,6.6,7.1,7.1,6.9,7.6C6.8,8.1,7.5,8.2,7.7,7.8c0.2-0.7,0.5-1.3,0.7-2
			C8.1,5.7,7.9,5.7,7.6,5.6c-0.1,0.5-0.2,1-0.3,1.5c0,0.4,0.6,0.4,0.7,0.1c0.2-0.5,0.2-0.9,0.4-1.4c0.1-0.5-0.6-0.7-0.7-0.2
			c-0.2,0.7-0.5,1.3-0.7,2c0.2,0.1,0.5,0.1,0.7,0.2C7.8,7.3,7.9,6.8,8,6.4C8.1,5.9,7.4,5.7,7.3,6.2L7.3,6.2z"/>
	</g>
</g>
<g id="XMLID_460_">
	<g id="XMLID_88_">
		<path id="XMLID_96_" class="st1" d="M7.1,7.4C7.2,7.9,7.3,8.4,7.4,9c0.1,0.4,0.7,0.4,0.8,0c0.1-0.4,0.2-0.7,0.3-1.1
			c0-0.2,0.1-0.4,0.1-0.5c0-0.1,0-0.1,0-0.2C8.8,7,8.7,7,8.5,7.1C8.4,7,8.4,6.9,8.3,6.8c0,0,0,0,0,0.1c0-0.1,0-0.2,0-0.3
			c0,0,0,0,0,0.1C8.1,7,8.5,7.4,8.8,7.2c0.5-0.4,0-1.2-0.5-0.8C8,6.5,7.9,6.9,7.8,7.3c-0.1,0.5-0.3,1-0.4,1.5c0.3,0,0.5,0,0.8,0
			C8.1,8.2,8,7.7,7.8,7.2C7.7,6.7,7,6.9,7.1,7.4L7.1,7.4z"/>
	</g>
</g>
<g id="XMLID_481_">
	<g id="XMLID_80_">
		<path id="XMLID_86_" class="st1" d="M9.2,2.1c0-0.2,0.2-0.7,0.5-0.5C9.9,1.7,9.6,1.9,9.4,2C9.1,2.1,8.9,2.3,8.8,2.7
			C8.7,2.8,8.8,3.1,9,3.1c0.5,0.2,1.1,0.1,1.3-0.4c0.2-0.5-0.1-1.1-0.7-1.2C9.1,1.4,8.9,2.1,9.4,2.3c0.1,0.1,0,0.2-0.1,0.1
			c0.1,0.2,0.2,0.3,0.3,0.5c0.1-0.2,0.4-0.3,0.5-0.4c0.1-0.1,0.3-0.2,0.4-0.4c0.2-0.4,0.1-0.9-0.2-1.2C9.4,0.3,8.5,1.2,8.5,2.1
			C8.4,2.6,9.2,2.5,9.2,2.1L9.2,2.1z"/>
	</g>
</g>
<g id="XMLID_506_">
	<g id="XMLID_73_">
		<path id="XMLID_78_" class="st1" d="M8.4,1.8c0.2-0.2,0.4-0.5,0.6-0.7c0.3-0.2,0.9-0.4,1.2-0.1c0.4,0.5,0.4,1.7,0.1,2.2
			C10,4,9.2,3.9,8.8,3.3C8.4,2.8,8.2,2.1,8.1,1.5C8,1.1,7.3,1.1,7.3,1.6c0.1,1.1,0.3,2.4,1.5,2.9c1,0.4,2,0,2.4-1
			c0.4-0.9,0.3-2.6-0.6-3.2c-1-0.7-2.1,0.2-2.7,1C7.6,1.7,8.1,2.2,8.4,1.8L8.4,1.8z"/>
	</g>
</g>
<g id="XMLID_519_">
	<g id="XMLID_66_">
		<path id="XMLID_71_" class="st1" d="M7.6,0.2C7.6-1,9.1-0.6,9.8-0.4c0.9,0.2,1.5,0.7,1.5,1.7c0,1.2,0.1,3-1.2,3.7
			C9,5.5,7.8,4.9,7.2,3.8C6.5,2.4,7,0.9,7.7-0.3C8-0.7,7.4-1.1,7.1-0.7C5.8,1.1,5.5,3.7,7.2,5.2c1.3,1.1,3.5,1.1,4.4-0.5
			c0.6-1,0.6-2.4,0.5-3.5c-0.1-0.9-0.3-1.5-1.1-2C9.8-1.4,7-1.9,6.9,0.2C6.9,0.6,7.6,0.6,7.6,0.2L7.6,0.2z"/>
	</g>
</g>
<g id="XMLID_536_">
	<g id="XMLID_60_">
		<path id="XMLID_64_" class="st1" d="M8.6,9c0.7,0.3,1.3,0.6,2,0.8c0.4,0.2,0.6-0.5,0.3-0.7c-0.6-0.3-1.2-0.6-1.8-0.9
			C8.6,8,8.1,8.8,8.6,9L8.6,9z"/>
	</g>
</g>
<g id="XMLID_543_">
	<g id="XMLID_54_">
		<path id="XMLID_58_" class="st1" d="M8.6,8.7c0.4,0.5,0.7,1,1.1,1.6c0.2-0.2,0.3-0.4,0.5-0.6C9.6,9.4,9.2,8.9,9,8.3
			C8.8,8.5,8.6,8.6,8.4,8.8c0.6,0.3,1,0.7,1.4,1.1c0.3,0.3,0.9-0.2,0.5-0.5c-0.1-0.1-0.2-0.2-0.3-0.3C9.8,8.8,9.4,9.2,9.6,9.5
			c0.1,0.1,0.1,0.3,0.2,0.4c0.2-0.1,0.4-0.2,0.6-0.4c-0.4-0.6-1-1-1.6-1.4C8.5,7.9,8.1,8.2,8.2,8.5c0.2,0.9,0.9,1.6,1.7,1.9
			c0.3,0.1,0.7-0.3,0.5-0.6c-0.4-0.5-0.8-1-1.1-1.6C9,7.9,8.3,8.3,8.6,8.7L8.6,8.7z"/>
	</g>
</g>
<g id="XMLID_29_">
	<g id="XMLID_47_">
		<path id="XMLID_51_" class="st1" d="M15.1,4.2C15,4.6,15.1,5,15.4,5.3c0.2,0.2,0.6,0,0.5-0.3c-0.1-0.2-0.1-0.4-0.1-0.7
			C15.8,3.9,15.2,3.8,15.1,4.2L15.1,4.2z"/>
	</g>
</g>
<g id="XMLID_126_">
	<g id="XMLID_40_">
		<path id="XMLID_44_" class="st1" d="M17.1,4.6c0.7,0,0.7-1,0-1C16.4,3.6,16.4,4.6,17.1,4.6L17.1,4.6z"/>
	</g>
</g>
<g id="XMLID_213_">
	<g id="XMLID_34_">
		<path id="XMLID_38_" class="st1" d="M15.5,6.1C15.9,6,16.4,6,16.8,5.9c0.3-0.1,0.3-0.6-0.1-0.6c-0.5,0-0.9,0.1-1.3,0.1
			C14.9,5.5,15,6.2,15.5,6.1L15.5,6.1z"/>
	</g>
</g>
<g id="XMLID_229_">
	<g id="XMLID_19_">
		<path id="XMLID_27_" class="st1" d="M13.8,3.1c0.2-0.1,0.4-0.3,0.6-0.4c-0.2-0.2-0.4-0.4-0.5-0.5c-0.2,0.2-0.3,0.4-0.4,0.7
			c-0.2,0.4,0.3,0.8,0.6,0.5c0.3-0.3,0.7-0.6,1.1-0.8c-0.2-0.2-0.4-0.3-0.6-0.5c0,0.1-0.1,0.3-0.1,0.4c-0.1,0.4,0.4,0.7,0.7,0.4
			c-0.1,0.1,1.8-0.4,1.8-0.5c0,0.2,0.3,0.3,0.5,0.3c0.8-0.2,1.4,0.1,2,0.6c0.3,0.3,0.9-0.1,0.6-0.5c-0.7-0.9-1.7-1.3-2.9-1
			c0.2,0.1,0.3,0.2,0.5,0.3c-0.1-0.7-0.7-0.7-1.3-0.6c-0.7,0.2-1.4,0.1-1.9,0.7c0.2,0.1,0.5,0.3,0.7,0.4c0-0.1,0-0.3,0.1-0.4
			c0.1-0.3-0.3-0.7-0.6-0.5c-0.5,0.3-0.8,0.6-1.2,1c0.2,0.1,0.4,0.3,0.7,0.4c0.1-0.2,0.2-0.4,0.3-0.6c0.2-0.3-0.2-0.8-0.5-0.5
			c-0.2,0.1-0.4,0.3-0.6,0.4C12.9,2.7,13.3,3.4,13.8,3.1L13.8,3.1z"/>
	</g>
</g>
</svg>
