<?xml version="1.0" encoding="utf-8"?>
<!-- Generator: Adobe Illustrator 19.0.0, SVG Export Plug-In . SVG Version: 6.00 Build 0)  -->
<svg version="1.1" id="Layer_1" xmlns="http://www.w3.org/2000/svg" xmlns:xlink="http://www.w3.org/1999/xlink" x="0px" y="0px"
	 viewBox="0 0 100 100" style="enable-background:new 0 0 100 100;" xml:space="preserve">
<style type="text/css">
	.st0{fill:#FF336D;}
	.st1{fill:#00FF00;}
</style>
<polygon id="XMLID_236_" class="st0" points="71.3,68.4 47.3,62.8 29.1,79.4 27,54.9 5.6,42.7 28.3,33.1 33.3,9 49.4,27.6 
	73.9,24.9 61.2,46 "/>
<g id="XMLID_1_">
	<g id="XMLID_525_">
		<path id="XMLID_528_" class="st1" d="M23.1,21.7c-4.6,0.6-12.6,0.7-12.5,6.9c0,5,4.1,9.6,8.5,11.2c4.1,1.5,10.9,1.8,11-3.9
			c0.1-4.8-3.9-8.1-8.5-7.4c0.3,1,0.5,1.9,0.8,2.9c1.9-0.3,6-1.9,7.5-0.3c1.3,1.4,1.6,5.9,2,7.7c0.4,1.9,3.3,1.1,2.9-0.8
			c-0.5-2.2-1.1-9.2-3.3-10.5c-2.3-1.4-7.5,0.7-9.9,1.1c-1.9,0.3-1.1,3.2,0.8,2.9c3.1,0.2,4.7,1.7,4.7,4.5c-1.4,1.7-3.1,2.3-5.2,1.6
			c-2.6-0.5-5-2-6.5-4.2c-1.7-2.4-2.9-5.3,0.3-7.2c1.7-1.1,5.5-1.2,7.4-1.4C25,24.4,25,21.4,23.1,21.7L23.1,21.7z"/>
	</g>
</g>
<g id="XMLID_2_">
	<g id="XMLID_84_">
		<path id="XMLID_40_" class="st1" d="M35.8,25.7c0.2,1.2,0.5,2.3,0.9,3.4c0.3,0.8,1,1.3,1.8,1c0.7-0.2,1.3-1.1,1-1.8
			c-0.4-1.1-0.7-2.2-0.9-3.4c-0.1-0.8-1.1-1.2-1.8-1C36,24.1,35.7,24.9,35.8,25.7L35.8,25.7z"/>
	</g>
</g>
<g id="XMLID_3_">
	<g id="XMLID_78_">
		<path id="XMLID_34_" class="st1" d="M40.3,33.7c5.6,3.7,7.3-6.7,7.3-10c0-2-2.8-1.9-3,0c-0.4,3.4-0.4,6.8,0.2,10.1
			c0.3,1.9,1.8,4.9,0.6,6.7c-0.9,1.5-5.7,2.4-7.3,1.9c-1.8-0.6-2.6,2.3-0.8,2.9c3,1,9.8-0.8,11.3-3.9c0.9-1.9-0.1-4.4-0.5-6.3
			c-0.9-3.9-1-7.6-0.5-11.5c-1,0-2,0-3,0c0,0.7-0.6,8.9-2.8,7.4C40.2,30,38.7,32.6,40.3,33.7L40.3,33.7z"/>
	</g>
</g>
<g id="XMLID_4_">
	<g id="XMLID_655_">
		<path id="XMLID_6_" class="st1" d="M51.9,23.1c0.4,3.5,1,6.9,1.9,10.2c0.4,1.6,3.1,1.3,2.9-0.4c-0.1-1.5-1-8.5,0.3-9.3
			c0.7-0.4,4.6,6.2,5.1,7.1c0.5,0.9,2.1,1,2.6,0c0.9-1.9,2.9-6.7,5.1-6.5c2.6,0.2,4.2,4.5,5.2,6.6c0.8,1.7,3.4,0.2,2.6-1.5
			c-1.2-2.6-4.4-9.2-8-9.2c-3.4,0.1-6.4,6.6-7.6,9.1c0.9,0,1.7,0,2.6,0c-1.2-2.2-5.3-10.2-8.7-9.4c-3.7,0.9-2.5,10.7-2.3,13.1
			c1-0.1,2-0.3,2.9-0.4c-0.8-3.1-1.5-6.2-1.8-9.4C54.7,21.2,51.7,21.2,51.9,23.1L51.9,23.1z"/>
	</g>
</g>
<g id="XMLID_11_">
	<g id="XMLID_66_">
		<path id="XMLID_15_" class="st1" d="M36.7,27.7c-0.1,1.6,0.9,3.3,1.9,4.5c1,1.2,2.7,2,4.2,1.4c0.8-0.3,1.3-1,1-1.8
			c-0.2-0.7-1.1-1.3-1.8-1c-1.2,0.5-2.3-2-2.3-3C39.7,25.8,36.7,25.8,36.7,27.7L36.7,27.7z"/>
	</g>
</g>
<g id="XMLID_52_">
	<g id="XMLID_97_">
		<path id="XMLID_58_" class="st1" d="M52.8,25.4c1.9,0,1.9-3,0-3C50.9,22.4,50.9,25.4,52.8,25.4L52.8,25.4z"/>
	</g>
</g>
<g id="XMLID_23_">
	<g id="XMLID_104_">
		<path id="XMLID_30_" class="st1" d="M61.7,27.5c0.7,0,0.7-1,0-1C61.1,26.5,61.1,27.5,61.7,27.5L61.7,27.5z"/>
	</g>
</g>
<g id="XMLID_185_">
	<g id="XMLID_194_">
		<path id="XMLID_59_" class="st1" d="M52.7,78.8c-0.3,3.2-0.5,6.5-0.8,9.7c-0.1,0.7,1,0.7,1,0c0.3-3.2,0.5-6.5,0.8-9.7
			C53.7,78.1,52.7,78.1,52.7,78.8L52.7,78.8z"/>
	</g>
</g>
<g id="XMLID_32_">
	<g id="XMLID_128_">
		<path id="XMLID_72_" class="st1" d="M54,78.6c6.2,0.1,12.3,0.2,18.5,0.3c3,0.1,6.3-0.2,9.2,0.2c0.7,0.1,1-0.1,1.5,0.5
			c0.3,0.4-0.2,2-0.2,2.5c-0.1,1.5-0.2,3-0.4,4.5c-0.1,1.2,0,2.6-0.3,3.7c-0.4,2-1.8,2.8-3.7,2.6c-2.5-0.2-4.9-0.4-7.4-0.5
			c-6.1-0.2-12.2-0.4-18.4-0.6c-0.7,0-0.7,1,0,1c8.7,0.3,17.5,0.5,26.2,1.1c2,0.1,3.9-0.1,4.3-2.4c0.7-4.2,0.7-8.8,1-13
			c0-0.3-0.3-0.5-0.5-0.5c-9.9-0.2-19.8-0.3-29.8-0.5C53.3,77.5,53.3,78.6,54,78.6L54,78.6z"/>
	</g>
</g>
<g id="XMLID_28_">
	<g id="XMLID_115_">
		<path id="XMLID_124_" class="st1" d="M66.6,80.3c0.3,3.6-0.1,7-0.4,10.6c0,0.4,0.6,0.5,0.7,0.1c0.9-3.5,0.8-7.2,0.5-10.7
			C67.4,79.8,66.5,79.8,66.6,80.3L66.6,80.3z"/>
	</g>
</g>
<g id="XMLID_76_">
	<g id="XMLID_132_">
		<path id="XMLID_136_" class="st1" d="M69.3,80.9C69.1,81.4,69,82,69,82.6c0,0.2,0.2,0.4,0.4,0.4c0.6,0.1,1.4,0.3,2,0.2
			c0.4,0,0.5-0.6,0.1-0.7c-0.7-0.2-1.4-0.2-2.1-0.3c0.1,0.1,0.3,0.3,0.4,0.4c0-0.5,0.1-1,0.3-1.5C70.2,80.6,69.5,80.4,69.3,80.9
			L69.3,80.9z"/>
	</g>
</g>
<g id="XMLID_82_">
	<g id="XMLID_139_">
		<path id="XMLID_143_" class="st1" d="M72.8,80.9c-0.8,0.4-0.7,1.6-0.1,2.1c0.9,0.7,2.4,0.2,3.2-0.4c0.8-0.6,0.9-1.7,0.2-2.5
			c-0.8-0.7-2-0.5-2.5,0.4c-0.3,0.5,0.4,0.9,0.8,0.4c0.7-0.9,1.9,0.3,0.7,1c-0.4,0.2-0.9,0.4-1.4,0.4c-0.2,0-0.5-0.1-0.6-0.3
			c-0.1-0.2-0.1-0.4,0.1-0.5C73.7,81.4,73.3,80.7,72.8,80.9L72.8,80.9z"/>
	</g>
</g>
<g id="XMLID_83_">
	<g id="XMLID_146_">
		<path id="XMLID_150_" class="st1" d="M78.1,80.1c-0.8,0.5-1.4,1.2-1.4,2.2c0,0.8,0.5,1.5,1.2,1.8c0.6,0.3,1.5,0.1,1.7-0.7
			c0.2-1-0.7-1.5-1.4-1.7c0,0.3,0,0.6,0,0.9c0.4-0.1,0.9-0.3,1.4-0.3c0.4,0,0.9,0.3,0.8,0.8c-0.1,0.5,0.6,0.7,0.8,0.2
			c0.3-0.7,0-1.3-0.6-1.7c-0.8-0.5-1.8-0.3-2.6,0c-0.4,0.2-0.5,0.8,0,0.9c0.1,0,1,0.4,0.6,0.6c-0.3,0.2-0.8-0.4-0.8-0.6
			c-0.3-0.7,0.3-1.4,0.9-1.7C79,80.6,78.6,79.8,78.1,80.1L78.1,80.1z"/>
	</g>
</g>
<g id="XMLID_101_">
	<g id="XMLID_153_">
		<path id="XMLID_151_" class="st1" d="M69.8,85.4c0.5,0.1,1,0.1,1.5,0c0.4-0.1,0.9-0.2,1.3-0.3c0.7-0.1,1.2,0.2,1.9,0.3
			c0.7,0.1,1.3,0.1,2.1,0.3c0.8,0.3,2,0.3,2.8,0.7c0.5,0.3,0.9-0.4,0.4-0.7c-0.7-0.5-1.1-0.5-1.9-0.6c-0.8-0.1-1.2-0.5-2.1-0.5
			c-0.9,0-1.6-0.3-2.5-0.3c-1.2-0.1-2.2,0.6-3.4,0.4C69.5,84.5,69.3,85.3,69.8,85.4L69.8,85.4z"/>
	</g>
</g>
<g id="XMLID_102_">
	<g id="XMLID_160_">
		<path id="XMLID_157_" class="st1" d="M70.6,86.8c0.9,0.2,1.8,0.4,2.8,0.3c0.3,0,0.7-0.1,1-0.1c2.4,0.2,0.4,0.2,1.4,0.7
			c1.1,0.5,2.9-0.1,3.8,0.6c0.4,0.3,1-0.2,0.6-0.6c-1.2-1.2-2.7-0.2-4.1-0.9c-0.6-0.3-0.6-0.6-1.4-0.7c-1.4,0-2.5,0.3-3.9,0
			C70.4,86,70.2,86.7,70.6,86.8L70.6,86.8z"/>
	</g>
</g>
<g id="XMLID_103_">
	<g id="XMLID_167_">
		<path id="XMLID_158_" class="st1" d="M70.9,89.3c0.8-0.4,1.6,0.5,2.3,0.7c0.5,0.1,0.8,0,1.3,0c1.5-0.2,3,0.7,4.5,0.7
			c0.5,0,0.6-0.7,0.1-0.8c-1.6-0.2-2.9-0.9-4.5-0.8c-0.7,0-1.4,0.1-2.1-0.2c-0.2-0.1-0.4-0.3-0.7-0.3c-0.5-0.1-0.9-0.1-1.4,0.2
			C70.1,88.9,70.5,89.6,70.9,89.3L70.9,89.3z"/>
	</g>
</g>
<g id="XMLID_111_">
	<g id="XMLID_174_">
		<path id="XMLID_164_" class="st1" d="M55.2,80.6c0.4-0.5,2,0.3,2.7,0.4c0.7,0.1,1.3-0.4,2.1-0.3c0.5,0.1,1,0.5,1.5,0.6
			c1.1,0.2,2-0.1,3.2,0.5c0.4,0.2,0.8-0.4,0.4-0.7c-0.9-0.6-1.8-0.5-2.9-0.6c-1.1-0.1-1.9-0.6-3-0.7c-0.1,0-0.1,0-0.1,0
			c-0.9,0.4-1.7,0.3-2.4-0.2c-0.2,0-0.4-0.2-0.6-0.2c-0.7-0.1-1,0.1-1.4,0.7C54.4,80.5,55,80.9,55.2,80.6L55.2,80.6z"/>
	</g>
</g>
<g id="XMLID_113_">
	<g id="XMLID_181_">
		<path id="XMLID_165_" class="st1" d="M55.4,82.8c0.8-0.5,1.5,0.2,2.3,0.3c0.5,0.1,0.8-0.1,1.3-0.2c1.8-0.3,3.5,0.1,5.3,0.1
			c0.5,0,0.5-0.7,0-0.8c-1.7-0.2-3.5-0.3-5.2-0.1c-0.6,0.1-1.2,0.2-1.8,0.1c-0.4-0.1-0.7-0.3-1.1-0.3c-0.5,0-0.7,0.1-1.1,0.3
			C54.7,82.5,55,83.1,55.4,82.8L55.4,82.8z"/>
	</g>
</g>
<g id="XMLID_130_">
	<g id="XMLID_188_">
		<path id="XMLID_171_" class="st1" d="M55.3,84.5c0.8-0.7,1.8-0.2,2.7-0.2c1-0.1,1.7-0.3,2.7,0.1c0.5,0.2,0.9,0.6,1.5,0.7
			c0.9,0.1,1.7-0.7,2.7-0.2c0.4,0.2,0.7-0.3,0.4-0.6c-0.8-0.6-1.1-0.3-2-0.2c-1.6,0.3-2.2-0.9-3.6-0.9c-0.3,0-0.3,0.1-0.8,0.2
			c-1.2,0.2-1.1,0.1-2.2,0.1c-0.7,0-1.3,0.1-1.8,0.6C54.5,84.3,55,84.8,55.3,84.5L55.3,84.5z"/>
	</g>
</g>
<g id="XMLID_137_">
	<g id="XMLID_195_">
		<path id="XMLID_172_" class="st1" d="M56,86.6c1.3-0.3,2.6,0.3,4,0c1.9-0.4,3.5-0.2,5.4,0.1c0.5,0.1,0.7-0.6,0.2-0.7
			c-1.5-0.4-3.1-0.7-4.7-0.5c-1.2,0.2-1.9,0.5-3.2,0.4c-0.7-0.1-1.2-0.2-2,0C55.3,86,55.5,86.7,56,86.6L56,86.6z"/>
	</g>
</g>
<g id="XMLID_144_">
	<g id="XMLID_202_">
		<path id="XMLID_178_" class="st1" d="M55.9,88.9c0.9-0.9,1.8,0.4,2.6,0.6c1,0.2,1.8-0.5,2.7-0.4c0.5,0.1,0.8,0.4,1.3,0.5
			c0.8,0.2,1.8-0.6,2.5,0c0.4,0.3,0.9-0.2,0.5-0.5c-0.5-0.6-0.9-0.5-1.6-0.5c-0.3,0-0.7,0.2-1.1,0.2c-0.4-0.1-0.6-0.4-0.9-0.5
			c-0.3-0.1-0.4-0.2-0.8-0.1c-0.9,0.1-1.4,0.6-2.4,0.4c-0.7-0.1-0.8-0.5-1.5-0.7c-0.7-0.2-1.4,0-1.9,0.5
			C54.9,88.7,55.5,89.2,55.9,88.9L55.9,88.9z"/>
	</g>
</g>
<g id="XMLID_108_">
	<g id="XMLID_216_">
		<path id="XMLID_220_" class="st1" d="M51.8,87.9c0,1.3,0,2.6,0,3.9c0,0.4,0.6,0.4,0.6,0c0-1.3,0-2.6,0-3.9
			C52.5,87.5,51.8,87.5,51.8,87.9L51.8,87.9z"/>
	</g>
</g>
<g id="XMLID_110_">
	<g id="XMLID_223_">
		<path id="XMLID_227_" class="st1" d="M52.1,88.2c0,1.2-0.1,2.4,0,3.5c0,0.4,0.6,0.4,0.6,0c0.1-1.2,0.1-2.4,0.1-3.5
			C52.7,87.8,52.1,87.8,52.1,88.2L52.1,88.2z"/>
	</g>
</g>
<g id="XMLID_118_">
	<g id="XMLID_230_">
		<path id="XMLID_234_" class="st1" d="M54.3,78.3c3.6-1.3,7.1-0.8,10.5,0.9c0.4,0.2,0.8-0.4,0.4-0.7c-3.3-2.1-7.5-2.2-11.1-0.9
			C53.6,77.7,53.8,78.4,54.3,78.3L54.3,78.3z"/>
	</g>
</g>
<g id="XMLID_119_">
	<g id="XMLID_237_">
		<path id="XMLID_241_" class="st1" d="M59.6,77.4c2.6-0.1,4.8,0.6,7.1,1.8c0.4,0.2,0.8-0.4,0.4-0.6c-2.2-1.4-4.8-2-7.4-1.9
			C59.1,76.8,59.1,77.4,59.6,77.4L59.6,77.4z"/>
	</g>
</g>
<g id="XMLID_120_">
	<g id="XMLID_254_">
		<path id="XMLID_261_" class="st1" d="M66.5,78.3c3.7-2,7.5-1.7,11.3-0.1c0.4,0.2,0.8-0.4,0.4-0.6c-3.7-2.2-8.3-1.9-12,0.1
			C65.7,77.9,66.1,78.5,66.5,78.3L66.5,78.3z"/>
	</g>
</g>
<g id="XMLID_125_">
	<g id="XMLID_262_">
		<path id="XMLID_459_" class="st1" d="M70.3,77.4c4-0.8,7.6,0.5,11.4,1.7c0.5,0.1,0.6-0.6,0.2-0.7c-3.7-1.5-7.8-2.5-11.8-1.6
			C69.6,76.8,69.8,77.5,70.3,77.4L70.3,77.4z"/>
	</g>
</g>
<g id="XMLID_127_">
	<g id="XMLID_466_">
		<path id="XMLID_472_" class="st1" d="M70.3,77.8c3.2-0.8,6.2-0.4,9.2,0.8c0.4,0.1,0.6-0.5,0.3-0.6c-3-1.4-6.4-1.6-9.7-0.8
			C69.6,77.2,69.8,77.9,70.3,77.8L70.3,77.8z"/>
	</g>
</g>
<g id="XMLID_207_">
	<g id="XMLID_265_">
		<path id="XMLID_269_" class="st1" d="M74.2,78.1c1.9-0.2,3.7,0.1,5.5,0.6c0.4,0.1,0.5-0.5,0.2-0.6c-1.8-0.7-3.7-0.9-5.6-0.7
			C73.8,77.5,73.8,78.1,74.2,78.1L74.2,78.1z"/>
	</g>
</g>
<g id="XMLID_214_">
	<g id="XMLID_272_">
		<path id="XMLID_276_" class="st1" d="M78.6,77.7c0.6,0.1,1.2,0.1,1.9,0.1c0.3,0,0.3-0.5,0-0.5c-0.6-0.1-1.2-0.1-1.9-0.2
			C78.3,77.1,78.3,77.7,78.6,77.7L78.6,77.7z"/>
	</g>
</g>
<g id="XMLID_221_">
	<g id="XMLID_279_">
		<path id="XMLID_283_" class="st1" d="M70.2,78.3c3.2-0.1,6.4,0.1,9.5,0.5c0.4,0.1,0.6-0.5,0.2-0.6c-3.2-0.6-6.4-0.7-9.7-0.6
			C69.8,77.7,69.8,78.4,70.2,78.3L70.2,78.3z"/>
	</g>
</g>
<g id="XMLID_228_">
	<g id="XMLID_286_">
		<path id="XMLID_290_" class="st1" d="M82.3,79.5c0.7,1.3,0.9,2.7,0.7,4.1c-0.1,0.4,0.6,0.6,0.7,0.2c0.3-1.6,0.1-3.2-0.7-4.7
			C82.8,78.7,82.1,79,82.3,79.5L82.3,79.5z"/>
	</g>
</g>
<g id="XMLID_235_">
	<g id="XMLID_293_">
		<path id="XMLID_297_" class="st1" d="M83.4,80.6c0.5,2.1,0.6,4.1,0.3,6.2c-0.1,0.4,0.5,0.6,0.6,0.2c0.5-2.2,0.4-4.4-0.2-6.6
			C84,79.9,83.3,80.1,83.4,80.6L83.4,80.6z"/>
	</g>
</g>
<g id="XMLID_242_">
	<g id="XMLID_300_">
		<path id="XMLID_304_" class="st1" d="M83.4,80c0.7,1.3,1,2.7,1,4.2c0,0.4,0.6,0.4,0.6,0c0.1-1.6-0.3-3.1-1-4.6
			C83.8,79.2,83.2,79.6,83.4,80L83.4,80z"/>
	</g>
</g>
<g id="XMLID_249_">
	<g id="XMLID_307_">
		<path id="XMLID_311_" class="st1" d="M84.1,79.1c1.9,2.9,2.2,6.1,1.3,9.4c-0.1,0.4,0.5,0.5,0.6,0.2c1.2-3.3,0.7-7-1.3-9.9
			C84.5,78.3,83.9,78.7,84.1,79.1L84.1,79.1z"/>
	</g>
</g>
<g id="XMLID_256_">
	<g id="XMLID_314_">
		<path id="XMLID_318_" class="st1" d="M84.6,81.7c0.3,3,0.1,5.9-0.7,8.8c-0.1,0.4,0.6,0.6,0.7,0.2c0.8-3,1-6,0.7-9
			C85.2,81.2,84.5,81.2,84.6,81.7L84.6,81.7z"/>
	</g>
</g>
<g id="XMLID_263_">
	<g id="XMLID_321_">
		<path id="XMLID_325_" class="st1" d="M84.7,89.3c-0.4,1.1-0.7,2.2-0.8,3.3c0,0.3,0.5,0.4,0.6,0.1c0.2-1.1,0.5-2.1,0.9-3.2
			C85.5,89.1,84.9,88.9,84.7,89.3L84.7,89.3z"/>
	</g>
</g>
<g id="XMLID_270_">
	<g id="XMLID_328_">
		<path id="XMLID_332_" class="st1" d="M83.9,86.3c-0.2,1.3-0.2,2.6-0.1,4c0,0.4,0.6,0.4,0.6,0c0-1.3,0-2.5,0.2-3.8
			C84.6,86,83.9,85.9,83.9,86.3L83.9,86.3z"/>
	</g>
</g>
<g id="XMLID_277_">
	<g id="XMLID_335_">
		<path id="XMLID_339_" class="st1" d="M85.2,83.7c0,2.5-0.1,5.1-0.5,7.6c0,0.3,0.5,0.4,0.6,0.1c0.4-2.5,0.6-5.1,0.5-7.7
			C85.9,83.2,85.2,83.2,85.2,83.7L85.2,83.7z"/>
	</g>
</g>
<g id="XMLID_284_">
	<g id="XMLID_342_">
		<path id="XMLID_346_" class="st1" d="M85.4,88.7c-0.3,1.4-0.5,2.7-0.6,4.1c0,0.4,0.5,0.3,0.6,0c0.2-1.3,0.4-2.7,0.7-4
			C86.1,88.4,85.5,88.2,85.4,88.7L85.4,88.7z"/>
	</g>
</g>
<g id="XMLID_291_">
	<g id="XMLID_349_">
		<path id="XMLID_353_" class="st1" d="M80.9,94c1.2-0.3,2.5-0.7,3.7-1c0.4-0.1,0.2-0.8-0.2-0.7c-1.2,0.3-2.5,0.7-3.7,1
			C80.3,93.4,80.5,94.1,80.9,94L80.9,94z"/>
	</g>
</g>
<g id="XMLID_298_">
	<g id="XMLID_356_">
		<path id="XMLID_360_" class="st1" d="M82.2,93.5c0.7,0,0.7-1,0-1C81.5,92.4,81.5,93.5,82.2,93.5L82.2,93.5z"/>
	</g>
</g>
<g id="XMLID_305_">
	<g id="XMLID_363_">
		<path id="XMLID_367_" class="st1" d="M83.2,92.8c0.7,0,0.7-1,0-1C82.5,91.8,82.5,92.8,83.2,92.8L83.2,92.8z"/>
	</g>
</g>
<g id="XMLID_312_">
	<g id="XMLID_370_">
		<path id="XMLID_374_" class="st1" d="M83.8,91.9c0-0.1-0.5,0.2-0.6,0.3c-0.1,0.1-0.2,0.2-0.3,0.3c-0.2,0.2-0.5,0.4-0.7,0.6
			c-0.3,0.2,0.1,0.6,0.4,0.4c0.4-0.3,0.8-0.6,1.2-1c0.2-0.2,0.5-0.4,0.4-0.7c-0.1-0.3-0.7-0.3-0.7,0.1
			C83.4,92.2,83.8,92.2,83.8,91.9L83.8,91.9z"/>
	</g>
</g>
<g id="XMLID_319_">
	<g id="XMLID_377_">
		<path id="XMLID_381_" class="st1" d="M66.5,93.4c1,2.3,3.6,2.3,5.9,2.5c4.2,0.3,8.4,0.4,12.5-0.1c0.4,0,0.4-0.6,0-0.6
			c-2.8,0.2-5.7,0.3-8.5,0.3c-2.7-0.1-8.1,0.4-9.4-2.4C66.8,92.8,66.3,93.1,66.5,93.4L66.5,93.4z"/>
	</g>
</g>
<g id="XMLID_326_">
	<g id="XMLID_384_">
		<path id="XMLID_388_" class="st1" d="M69.9,93.9c3.5,0.5,7,0.8,10.5,0.8c0.4,0,0.4-0.5,0-0.6c-3.5-0.2-6.9-0.4-10.4-0.9
			C69.7,93.3,69.6,93.9,69.9,93.9L69.9,93.9z"/>
	</g>
</g>
<g id="XMLID_333_">
	<g id="XMLID_391_">
		<path id="XMLID_395_" class="st1" d="M83,92.4c-0.5,0.9-0.9,1.8-1.2,2.8c-0.1,0.4,0.5,0.6,0.6,0.2c0.3-0.9,0.7-1.8,1.2-2.6
			C83.9,92.4,83.3,92,83,92.4L83,92.4z"/>
	</g>
</g>
<g id="XMLID_340_">
	<g id="XMLID_398_">
		<path id="XMLID_402_" class="st1" d="M83.2,92.8c-0.2,0.3-0.4,0.6-0.7,0.8c-0.2,0.2,0.1,0.5,0.3,0.3c0.2-0.3,0.4-0.6,0.7-0.8
			C83.6,92.9,83.4,92.6,83.2,92.8L83.2,92.8z"/>
	</g>
</g>
<g id="XMLID_347_">
	<g id="XMLID_405_">
		<path id="XMLID_409_" class="st1" d="M53.3,92.7c0.6,1.6,2,1.8,3.6,2c3.3,0.4,6.6,0.8,9.9,1.2c0.4,0,0.4-0.6,0-0.6
			c-1.9-0.3-3.8-0.5-5.7-0.7c-1.8-0.2-6.5-0.1-7.3-2.1C53.7,92.2,53.1,92.3,53.3,92.7L53.3,92.7z"/>
	</g>
</g>
<g id="XMLID_354_">
	<g id="XMLID_412_">
		<path id="XMLID_416_" class="st1" d="M60.2,95.5c2.2,0.2,4.4,0.5,6.6,0.7c0.4,0,0.4-0.5,0-0.6c-2.2-0.2-4.4-0.5-6.6-0.7
			C59.8,94.8,59.8,95.4,60.2,95.5L60.2,95.5z"/>
	</g>
</g>
<g id="XMLID_361_">
	<g id="XMLID_419_">
		<path id="XMLID_417_" class="st1" d="M56.9,91.9c0.7,0,0.7-1,0-1C56.2,90.9,56.2,91.9,56.9,91.9L56.9,91.9z"/>
	</g>
</g>
<g id="XMLID_368_">
	<g id="XMLID_426_">
		<path id="XMLID_423_" class="st1" d="M59.6,93c1.8,0.2,3.6,0.5,5.3,0.9c0.4,0.1,0.5-0.5,0.2-0.6c-1.8-0.5-3.6-0.8-5.5-1
			C59.1,92.2,59.1,92.9,59.6,93L59.6,93z"/>
	</g>
</g>
<g id="XMLID_375_">
	<g id="XMLID_433_">
		<path id="XMLID_430_" class="st1" d="M58.6,93.6c2.3,0,4.6,0.3,6.8,0.8c0.3,0.1,0.5-0.5,0.1-0.5c-2.3-0.5-4.6-0.8-7-0.9
			C58.2,93,58.2,93.6,58.6,93.6L58.6,93.6z"/>
	</g>
</g>
<g id="XMLID_382_">
	<g id="XMLID_440_">
		<path id="XMLID_437_" class="st1" d="M59.9,94.4c1.7,0.2,3.5,0.3,5.2,0.5c0.4,0,0.4-0.5,0-0.6c-1.7-0.2-3.5-0.4-5.2-0.5
			C59.5,93.8,59.5,94.4,59.9,94.4L59.9,94.4z"/>
	</g>
</g>
<g id="XMLID_389_">
	<g id="XMLID_447_">
		<path id="XMLID_444_" class="st1" d="M61.7,94.3c3.2,0.7,6.4,1.1,9.7,0.9c0.4,0,0.4-0.6,0-0.6c-3.2,0.1-6.4-0.2-9.5-1
			C61.4,93.6,61.3,94.2,61.7,94.3L61.7,94.3z"/>
	</g>
</g>
<g id="XMLID_396_">
	<g id="XMLID_454_">
		<path id="XMLID_451_" class="st1" d="M76,94.8c0.8,0.1,1.5,0.3,2.2,0.6c0.3,0.1,0.5-0.4,0.2-0.6c-0.7-0.3-1.5-0.6-2.3-0.7
			C75.8,94.1,75.6,94.7,76,94.8L76,94.8z"/>
	</g>
</g>
<g id="XMLID_403_">
	<g id="XMLID_461_">
		<path id="XMLID_458_" class="st1" d="M56.4,93.4c-1,0.1-2,0.2-3,0.5c-0.4,0.1-0.2,0.7,0.2,0.6c0.9-0.2,1.9-0.3,2.8-0.4
			C56.9,94.2,56.9,93.4,56.4,93.4L56.4,93.4z"/>
	</g>
</g>
<g id="XMLID_410_">
	<g id="XMLID_468_">
		<path id="XMLID_465_" class="st1" d="M58.1,93.8c0.7,0,0.7-1,0-1C57.4,92.8,57.4,93.8,58.1,93.8L58.1,93.8z"/>
	</g>
</g>
<g id="XMLID_46_">
	<g id="XMLID_248_">
		<path id="XMLID_243_" class="st1" d="M16.3,2.9c-1.7,0.5-2.5,2.3-1.4,3.7c1.3,1.7,3.8,1.4,5.5,0.5C21.8,6.4,23,4.5,21.7,3
			c-1.4-1.7-4.5-0.8-6.1,0.1c-0.5,0.3-0.1,1.1,0.5,0.8c1-0.5,2.2-0.8,3.3-0.8c0.7,0,1.5,0.1,1.7,0.9c0.2,0.7-0.4,1.5-1,1.9
			c-0.9,0.6-2.3,1-3.4,0.8c-1.5-0.4-2.1-2.5-0.3-3.1C17.1,3.6,16.9,2.7,16.3,2.9L16.3,2.9z"/>
	</g>
</g>
<g id="XMLID_70_">
	<g id="XMLID_475_">
		<path id="XMLID_244_" class="st1" d="M17.6,8.1c0.1,2.9,0.7,6.2,0.4,9.1c-0.2,2.3-3.2,4.3-4.5,6.2c-0.3,0.4,0.4,0.9,0.7,0.5
			c1-1.2,2-2.4,3.2-3.5c0.6-0.6,1.4-1.1,1.7-1.8c0.4-1-0.2-3.6-0.3-4.8c-0.1-1.9-0.2-3.8-0.3-5.7C18.4,7.6,17.6,7.6,17.6,8.1
			L17.6,8.1z"/>
	</g>
</g>
<g id="XMLID_90_">
	<g id="XMLID_483_">
		<path id="XMLID_424_" class="st1" d="M19,19.9c1.2,0.9,2.3,1.7,3.6,2.5c0.4,0.3,0.9-0.4,0.5-0.7c-1.1-1-2.4-1.8-3.6-2.7
			C19,18.6,18.5,19.5,19,19.9L19,19.9z"/>
	</g>
</g>
<g id="XMLID_488_">
	<g id="XMLID_531_">
		<path id="XMLID_74_" class="st1" d="M11.8,10.1c4.1,2,8.3,3.4,12.4,0.6c0.5-0.4,0-1.3-0.5-0.9c-3.8,2.7-7.6,1.3-11.3-0.6
			C11.7,8.9,11.2,9.8,11.8,10.1L11.8,10.1z"/>
	</g>
</g>
<g id="XMLID_209_">
	<g id="XMLID_520_">
		<path id="XMLID_75_" class="st1" d="M10.2,6.7c0.7-1.3,1.4-2.7,2.1-4c0.3-0.6-0.6-1.1-0.9-0.5c-0.7,1.3-1.4,2.6-2.1,4
			C9.1,6.8,9.9,7.3,10.2,6.7L10.2,6.7z"/>
	</g>
</g>
<g id="XMLID_490_">
	<g id="XMLID_514_">
		<path id="XMLID_91_" class="st1" d="M10.8,7.1c0.6-1.7,1.3-3.3,1.9-5c0.2-0.6-0.8-0.9-1-0.3C11,3.4,10.4,4.9,9.7,6.4
			C9.5,7,10.3,7.6,10.6,7c0.7-1.6,1.4-3.2,2-4.9c-0.3-0.1-0.7-0.2-1-0.3c-0.6,1.7-1.3,3.3-1.9,5C9.5,7.4,10.5,7.7,10.8,7.1L10.8,7.1
			z"/>
	</g>
</g>
<g id="XMLID_482_">
	<g id="XMLID_508_">
		<path id="XMLID_192_" class="st1" d="M10.7,6.7c0.6-1.2,1.1-2.3,1.7-3.5c-0.3-0.2-0.6-0.3-0.9-0.5c-0.6,1.2-1.1,2.4-1.6,3.7
			c-0.3,0.6,0.7,0.9,1,0.3c0.5-1.1,1-2.3,1.5-3.4c0.3-0.6-0.6-1.1-0.9-0.5C10.9,3.9,10.3,5,9.8,6.2C9.5,6.8,10.4,7.3,10.7,6.7
			L10.7,6.7z"/>
	</g>
</g>
<g id="XMLID_467_">
	<g id="XMLID_501_">
		<path id="XMLID_206_" class="st1" d="M10.8,6.7c0.6-1.5,1.2-3,1.8-4.5c0.2-0.6-0.6-0.8-0.9-0.4c-1,1.4-1.7,3-2.4,4.6
			C9,7,10,7.3,10.3,6.7c0.6-1.5,1.3-3,2.2-4.3c-0.3-0.1-0.6-0.3-0.9-0.4C11,3.5,10.4,5,9.8,6.5C9.5,7.1,10.5,7.4,10.8,6.7L10.8,6.7z
			"/>
	</g>
</g>
<g id="XMLID_29_">
	<g id="XMLID_495_">
		<path id="XMLID_499_" class="st1" d="M10.4,2.7C10,3.8,9.7,4.8,9.3,5.9c-0.2,0.6,0.8,0.9,1,0.3C10.7,5.1,11,4.1,11.4,3
			C11.6,2.4,10.6,2.1,10.4,2.7L10.4,2.7z"/>
	</g>
</g>
<g id="XMLID_92_">
	<g id="XMLID_538_">
		<path id="XMLID_479_" class="st1" d="M6.2,11c-1.5,1-0.4,3.4,1.3,2.7c0.7-0.3,1.2-1.1,1-1.8c-0.3-0.8-1.2-1.3-2-1
			C6,11,6.2,11.7,6.7,11.6c0.9-0.2,1.5,1,0.5,1.3c-0.8,0.3-1.3-0.9-0.6-1.3C7,11.3,6.6,10.7,6.2,11L6.2,11z"/>
	</g>
</g>
<g id="XMLID_93_">
	<g id="XMLID_545_">
		<path id="XMLID_487_" class="st1" d="M5.9,11c0.2-0.5,0.6-1.7,1.3-1.7c0.7,0,1,0.6,1.2,1.1c0.3,0.8,0.8,2.3,0.4,3.1
			c-0.6,1-1.9,0-2.4-0.5c-0.8-0.8-0.9-1.8-0.6-2.8C5.9,9.6,5.3,9.4,5,9.8c-0.8,1.5-0.2,3.2,1.1,4.2c1.1,0.8,3,1.5,3.5-0.3
			c0.3-1,0.1-2-0.2-3C9.2,10,9,9.1,8.4,8.7c-1.6-1.1-2.8,0.8-3.2,2.1C5,11.2,5.8,11.4,5.9,11L5.9,11z"/>
	</g>
</g>
<g id="XMLID_211_">
	<g id="XMLID_552_">
		<path id="XMLID_542_" class="st1" d="M5.6,9.9c0.2-0.7,0.5-1.7,1.1-2.2c2.1-1.7,2.6,0.9,2.8,1.8c0.4,1.5,0.7,3,0.5,4.6
			c0,0.3-0.1,0.6-0.2,0.9c-0.7,0.4-1.4,0.7-2.2,1.1c-0.8,0-1.9-1.3-2.3-1.9c-1-1.6-0.7-3.4,0.3-4.9c0.3-0.5-0.4-0.9-0.8-0.4
			c-1.7,2.2-1.4,5.4,0.8,7.2c1.8,1.5,4.3,1.6,5.1-0.9c0.4-1.3,0.2-2.8,0-4.2c-0.2-1.3-0.4-3.3-1.5-4.2C7.1,4.9,5.3,8,4.8,9.7
			C4.7,10.2,5.4,10.4,5.6,9.9L5.6,9.9z"/>
	</g>
</g>
<g id="XMLID_245_">
	<g id="XMLID_559_">
		<path id="XMLID_549_" class="st1" d="M9.3,6.2C9.2,6.6,9.1,7.1,8.9,7.6C8.8,8.1,9.5,8.2,9.7,7.8c0.2-0.7,0.5-1.3,0.7-2
			c-0.2-0.1-0.5-0.1-0.7-0.2c-0.1,0.5-0.2,1-0.3,1.5c0,0.4,0.6,0.4,0.7,0.1c0.2-0.5,0.2-0.9,0.4-1.4c0.1-0.5-0.6-0.7-0.7-0.2
			c-0.2,0.7-0.5,1.3-0.7,2c0.2,0.1,0.5,0.1,0.7,0.2C9.8,7.3,9.9,6.8,10,6.4C10.1,5.9,9.4,5.7,9.3,6.2L9.3,6.2z"/>
	</g>
</g>
<g id="XMLID_460_">
	<g id="XMLID_566_">
		<path id="XMLID_556_" class="st1" d="M9.1,7.4C9.2,7.9,9.3,8.4,9.4,9c0.1,0.4,0.7,0.4,0.8,0c0.1-0.4,0.2-0.7,0.3-1.1
			c0-0.2,0.1-0.4,0.1-0.5c0-0.1,0-0.1,0-0.2c0.1-0.2,0-0.3-0.2-0.1c-0.1-0.1-0.1-0.2-0.2-0.2c0,0,0,0,0,0.1c0-0.1,0-0.2,0-0.3
			c0,0,0,0,0,0.1c-0.2,0.3,0.2,0.7,0.5,0.5c0.5-0.4,0-1.2-0.5-0.8C10,6.5,9.9,6.9,9.8,7.3c-0.1,0.5-0.3,1-0.4,1.5c0.3,0,0.5,0,0.8,0
			C10.1,8.2,10,7.7,9.8,7.2C9.7,6.7,9,6.9,9.1,7.4L9.1,7.4z"/>
	</g>
</g>
<g id="XMLID_481_">
	<g id="XMLID_573_">
		<path id="XMLID_557_" class="st1" d="M11.2,2.1c0-0.2,0.2-0.7,0.5-0.5c0.2,0.2-0.1,0.3-0.2,0.4c-0.3,0.2-0.5,0.4-0.7,0.7
			c-0.1,0.2,0,0.4,0.2,0.5c0.5,0.2,1.1,0.1,1.3-0.4c0.2-0.5-0.1-1.1-0.7-1.2c-0.5-0.1-0.7,0.6-0.2,0.8c0.1,0.1,0,0.2-0.1,0.1
			c0.1,0.2,0.2,0.3,0.3,0.5c0.1-0.2,0.4-0.3,0.5-0.4c0.1-0.1,0.3-0.2,0.4-0.4c0.2-0.4,0.1-0.9-0.2-1.2c-0.8-0.7-1.8,0.1-1.8,1.1
			C10.4,2.6,11.2,2.5,11.2,2.1L11.2,2.1z"/>
	</g>
</g>
<g id="XMLID_506_">
	<g id="XMLID_580_">
		<path id="XMLID_563_" class="st1" d="M10.4,1.8c0.2-0.2,0.4-0.5,0.6-0.7c0.3-0.2,0.9-0.4,1.2-0.1c0.4,0.5,0.4,1.7,0.1,2.2
			C12,4,11.2,3.9,10.8,3.3c-0.4-0.5-0.5-1.2-0.7-1.8C10,1.1,9.3,1.1,9.3,1.6c0.1,1.1,0.3,2.4,1.5,2.9c1,0.4,2,0,2.4-1
			c0.4-0.9,0.3-2.6-0.6-3.2c-1-0.7-2.1,0.2-2.7,1C9.6,1.7,10.1,2.2,10.4,1.8L10.4,1.8z"/>
	</g>
</g>
<g id="XMLID_519_">
	<g id="XMLID_587_">
		<path id="XMLID_570_" class="st1" d="M9.6,0.2c0.1-1.2,1.6-0.8,2.2-0.6c0.9,0.2,1.5,0.7,1.5,1.7c0,1.2,0.1,3-1.2,3.7
			c-1.1,0.6-2.4-0.1-3-1.2C8.5,2.4,9,0.9,9.7-0.3C10-0.7,9.4-1.1,9.1-0.7C7.8,1.1,7.5,3.7,9.2,5.2c1.3,1.1,3.5,1.1,4.4-0.5
			c0.6-1,0.6-2.4,0.5-3.5c-0.1-0.9-0.3-1.5-1.1-2C11.8-1.4,9-1.9,8.9,0.2C8.9,0.6,9.6,0.6,9.6,0.2L9.6,0.2z"/>
	</g>
</g>
<g id="XMLID_536_">
	<g id="XMLID_594_">
		<path id="XMLID_571_" class="st1" d="M10.6,9c0.7,0.3,1.3,0.6,2,0.8c0.4,0.2,0.6-0.5,0.3-0.7c-0.6-0.3-1.2-0.6-1.8-0.9
			C10.6,8,10.1,8.8,10.6,9L10.6,9z"/>
	</g>
</g>
<g id="XMLID_543_">
	<g id="XMLID_601_">
		<path id="XMLID_577_" class="st1" d="M10.6,8.7c0.4,0.5,0.7,1,1.1,1.6c0.2-0.2,0.3-0.4,0.5-0.6c-0.6-0.2-1-0.7-1.2-1.3
			c-0.2,0.1-0.4,0.3-0.6,0.4c0.6,0.3,1,0.7,1.4,1.1c0.3,0.3,0.9-0.2,0.5-0.5c-0.1-0.1-0.2-0.2-0.3-0.3c-0.2-0.2-0.6,0.1-0.5,0.4
			c0.1,0.1,0.1,0.3,0.2,0.4c0.2-0.1,0.4-0.2,0.6-0.4c-0.4-0.6-1-1-1.6-1.4c-0.3-0.2-0.7,0.1-0.6,0.4c0.2,0.9,0.9,1.6,1.7,1.9
			c0.3,0.1,0.7-0.3,0.5-0.6c-0.4-0.5-0.8-1-1.1-1.6C11,7.9,10.3,8.3,10.6,8.7L10.6,8.7z"/>
	</g>
</g>
<g id="XMLID_73_">
	<g id="XMLID_585_">
		<path id="XMLID_584_" class="st1" d="M17.1,4.2C17,4.6,17.1,5,17.4,5.3c0.2,0.2,0.6,0,0.5-0.3c-0.1-0.2-0.1-0.4-0.1-0.7
			C17.8,3.9,17.2,3.8,17.1,4.2L17.1,4.2z"/>
	</g>
</g>
<g id="XMLID_126_">
	<g id="XMLID_608_">
		<path id="XMLID_591_" class="st1" d="M19.1,4.6c0.7,0,0.7-1,0-1C18.4,3.6,18.4,4.6,19.1,4.6L19.1,4.6z"/>
	</g>
</g>
<g id="XMLID_213_">
	<g id="XMLID_615_">
		<path id="XMLID_598_" class="st1" d="M17.5,6.1C17.9,6,18.4,6,18.8,5.9c0.3-0.1,0.3-0.6-0.1-0.6c-0.5,0-0.9,0.1-1.3,0.1
			C16.9,5.5,17,6.2,17.5,6.1L17.5,6.1z"/>
	</g>
</g>
<g id="XMLID_229_">
	<g id="XMLID_622_">
		<path id="XMLID_600_" class="st1" d="M15.8,3.1c0.2-0.1,0.4-0.3,0.6-0.4c-0.2-0.2-0.4-0.4-0.5-0.5c-0.2,0.2-0.3,0.4-0.4,0.7
			c-0.2,0.4,0.3,0.8,0.6,0.5c0.3-0.3,0.7-0.6,1.1-0.8c-0.2-0.2-0.4-0.3-0.6-0.5c0,0.1-0.1,0.3-0.1,0.4c-0.1,0.4,0.4,0.7,0.7,0.4
			c-0.1,0.1,1.8-0.4,1.8-0.5c0,0.2,0.3,0.3,0.5,0.3c0.8-0.2,1.4,0.1,2,0.6c0.3,0.3,0.9-0.1,0.6-0.5c-0.7-0.9-1.7-1.3-2.9-1
			c0.2,0.1,0.3,0.2,0.5,0.3c-0.1-0.7-0.7-0.7-1.3-0.6c-0.7,0.2-1.4,0.1-1.9,0.7c0.2,0.1,0.5,0.3,0.7,0.4c0-0.1,0-0.3,0.1-0.4
			c0.1-0.3-0.3-0.7-0.6-0.5c-0.5,0.3-0.8,0.6-1.2,1c0.2,0.1,0.4,0.3,0.7,0.4c0.1-0.2,0.2-0.4,0.3-0.6c0.2-0.3-0.2-0.8-0.5-0.5
			c-0.2,0.1-0.4,0.3-0.6,0.4C14.9,2.7,15.3,3.4,15.8,3.1L15.8,3.1z"/>
	</g>
</g>
<g id="XMLID_606_">
	<g id="XMLID_535_">
		<g id="XMLID_51_">
			<path id="XMLID_10_" class="st1" d="M21.4,46.5c0.3,7.7,0.6,15.5,0.9,23.2c0.1,1.9,3.1,1.9,3,0C25,62,24.7,54.2,24.4,46.5
				C24.3,44.6,21.3,44.6,21.4,46.5L21.4,46.5z"/>
		</g>
	</g>
	<g id="XMLID_524_">
		<g id="XMLID_44_">
			<path id="XMLID_9_" class="st1" d="M24,48c2.9-0.3,8.2-1.1,9,2.4c1.2,5.1-4.7,5.8-8,6.4c-1.4,0.2-1.3,2.1-0.4,2.7
				c1.9,1.4,3.9,1.9,6.1,2.5c2.9,0.8,5.6,1.9,8.2,3.4c1.7,1,3.2-1.6,1.5-2.6c-2.1-1.2-4.3-2.2-6.6-3c-2.7-0.9-5.4-1.2-7.7-2.9
				c-0.1,0.9-0.2,1.8-0.4,2.7c5.5-0.9,10.8-2.8,10.3-9.5c-0.4-5.9-7.7-5.5-12.1-5.1C22.1,45.1,22.1,48.1,24,48L24,48z"/>
		</g>
	</g>
	<g id="XMLID_518_">
		<g id="XMLID_37_">
			<path id="XMLID_12_" class="st1" d="M50.8,49.8c-2.1-4.2-6.1-0.4-7.4,2.2c-1.9,3.7-3.7,9.2,0,12.4c2.5,2.2,7.5,2.4,9.9,0
				c3.3-3.3,1.9-10.6,0.6-14.5c-0.6-1.8-3.3-1.1-2.9,0.8c1,4.3,3.5,7.7,6.2,11.1c1.2,1.5,3.3-0.6,2.1-2.1c-2.4-3-4.6-6-5.5-9.8
				c-1,0.3-1.9,0.5-2.9,0.8c0.8,2.3,1.2,4.7,1.1,7.2c-0.1,2.8-0.5,5.2-3.8,5.2c-3.3,0-4.5-2.6-3.8-5.5c0.3-1.2,0.8-2.4,1.3-3.5
				c0.2-0.4,2-3.6,2.5-2.7C49.1,53.1,51.7,51.5,50.8,49.8L50.8,49.8z"/>
		</g>
	</g>
	<g id="XMLID_512_">
		<g id="XMLID_26_">
			<path id="XMLID_13_" class="st1" d="M59.1,37.5c0.7,5.5,2.8,10.9,4.9,16c1,2.4,2.5,8.7,5.8,9.1c6.1,0.7,8.9-12,3.6-14.4
				c-1.7-0.8-3.3,1.8-1.5,2.6c2.7,1.2,1.3,9.5-2.3,7.6c-1.1-0.6-2.9-6.3-3.2-7.3c-1.7-4.3-3.6-9-4.2-13.7
				C61.8,35.6,58.8,35.6,59.1,37.5L59.1,37.5z"/>
		</g>
	</g>
	<g id="XMLID_505_">
		<g id="XMLID_24_">
			<path id="XMLID_19_" class="st1" d="M56.5,47.5c6.6-1.3,13.2-2.6,19.8-3.8c1.9-0.4,1.1-3.2-0.8-2.9c-6.6,1.2-13.2,2.5-19.8,3.8
				C53.9,45,54.7,47.9,56.5,47.5L56.5,47.5z"/>
		</g>
	</g>
</g>
</svg>
